<mxfile host="app.diagrams.net" agent="Mozilla/5.0 (Windows NT 10.0; Win64; x64) AppleWebKit/537.36 (KHTML, like Gecko) Chrome/128.0.0.0 Safari/537.36 OPR/114.0.0.0" version="24.8.6">
  <diagram id="mye7cpsdecRdVJIh1ltE" name="Page-1">
    <mxGraphModel dx="10576" dy="4092" grid="1" gridSize="10" guides="1" tooltips="1" connect="1" arrows="1" fold="1" page="1" pageScale="1" pageWidth="3300" pageHeight="4681" math="0" shadow="0">
      <root>
        <mxCell id="0" />
        <mxCell id="1" parent="0" />
        <mxCell id="GoWqnwifKlF_Yr-xNYbi-38" style="edgeStyle=none;rounded=0;orthogonalLoop=1;jettySize=auto;html=1;exitX=0;exitY=0.5;exitDx=0;exitDy=0;entryX=1;entryY=0.5;entryDx=0;entryDy=0;fillColor=#dae8fc;strokeColor=#6c8ebf;" parent="1" source="GoWqnwifKlF_Yr-xNYbi-1" target="GoWqnwifKlF_Yr-xNYbi-3" edge="1">
          <mxGeometry relative="1" as="geometry">
            <mxPoint x="-830" y="2120" as="targetPoint" />
          </mxGeometry>
        </mxCell>
        <mxCell id="qn3d2HcTWaKksIYHcs9O-18" style="edgeStyle=none;rounded=0;orthogonalLoop=1;jettySize=auto;html=1;exitX=1;exitY=0.5;exitDx=0;exitDy=0;" parent="1" source="GoWqnwifKlF_Yr-xNYbi-1" edge="1">
          <mxGeometry relative="1" as="geometry">
            <mxPoint x="-570" y="2120" as="targetPoint" />
          </mxGeometry>
        </mxCell>
        <mxCell id="GoWqnwifKlF_Yr-xNYbi-1" value="Яндекс Маршруты" style="rounded=1;whiteSpace=wrap;html=1;arcSize=22;fillColor=#f8cecc;strokeColor=#b85450;" parent="1" vertex="1">
          <mxGeometry x="-760" y="2100" width="120" height="40" as="geometry" />
        </mxCell>
        <mxCell id="GoWqnwifKlF_Yr-xNYbi-52" style="edgeStyle=none;rounded=0;orthogonalLoop=1;jettySize=auto;html=1;exitX=0;exitY=0.5;exitDx=0;exitDy=0;entryX=1;entryY=0.5;entryDx=0;entryDy=0;fillColor=#dae8fc;strokeColor=#6c8ebf;" parent="1" source="GoWqnwifKlF_Yr-xNYbi-3" target="GoWqnwifKlF_Yr-xNYbi-43" edge="1">
          <mxGeometry relative="1" as="geometry" />
        </mxCell>
        <mxCell id="OxW7yi1mNQBKnJ8u3WXz-1" style="rounded=0;orthogonalLoop=1;jettySize=auto;html=1;exitX=0;exitY=0.5;exitDx=0;exitDy=0;entryX=1;entryY=0.5;entryDx=0;entryDy=0;fillColor=#dae8fc;strokeColor=#6c8ebf;" parent="1" source="GoWqnwifKlF_Yr-xNYbi-3" target="GoWqnwifKlF_Yr-xNYbi-45" edge="1">
          <mxGeometry relative="1" as="geometry" />
        </mxCell>
        <mxCell id="OxW7yi1mNQBKnJ8u3WXz-3" style="edgeStyle=none;rounded=0;orthogonalLoop=1;jettySize=auto;html=1;exitX=0;exitY=0.5;exitDx=0;exitDy=0;entryX=1;entryY=0.5;entryDx=0;entryDy=0;fillColor=#dae8fc;strokeColor=#6c8ebf;" parent="1" source="GoWqnwifKlF_Yr-xNYbi-3" target="OxW7yi1mNQBKnJ8u3WXz-2" edge="1">
          <mxGeometry relative="1" as="geometry" />
        </mxCell>
        <mxCell id="GoWqnwifKlF_Yr-xNYbi-3" value="Интерфейс" style="rounded=1;whiteSpace=wrap;html=1;arcSize=22;fillColor=#dae8fc;strokeColor=#6c8ebf;" parent="1" vertex="1">
          <mxGeometry x="-960" y="2100" width="120" height="40" as="geometry" />
        </mxCell>
        <mxCell id="GoWqnwifKlF_Yr-xNYbi-4" value="Проверка правильности ввода данных в поля" style="rounded=1;whiteSpace=wrap;html=1;arcSize=22;fillColor=#ffe6cc;strokeColor=#d79b00;" parent="1" vertex="1">
          <mxGeometry x="-70" y="1620" width="120" height="40" as="geometry" />
        </mxCell>
        <mxCell id="GoWqnwifKlF_Yr-xNYbi-5" value="Выбор вида транспорта и режима" style="rounded=1;whiteSpace=wrap;html=1;arcSize=22;fillColor=#ffe6cc;strokeColor=#d79b00;" parent="1" vertex="1">
          <mxGeometry x="-340" y="2070" width="120" height="40" as="geometry" />
        </mxCell>
        <mxCell id="oigtg8h2ie4QQOlHJKOF-7" style="edgeStyle=none;rounded=0;orthogonalLoop=1;jettySize=auto;html=1;exitX=0;exitY=0.5;exitDx=0;exitDy=0;entryX=1;entryY=0.5;entryDx=0;entryDy=0;fillColor=#dae8fc;strokeColor=#6c8ebf;" parent="1" source="GoWqnwifKlF_Yr-xNYbi-43" target="1AvOfJaNKrpmNgOsHSDn-12" edge="1">
          <mxGeometry relative="1" as="geometry">
            <mxPoint x="-1320" y="2130" as="targetPoint" />
          </mxGeometry>
        </mxCell>
        <mxCell id="oigtg8h2ie4QQOlHJKOF-8" style="edgeStyle=none;rounded=0;orthogonalLoop=1;jettySize=auto;html=1;exitX=0;exitY=0.5;exitDx=0;exitDy=0;entryX=1;entryY=0.5;entryDx=0;entryDy=0;fillColor=#dae8fc;strokeColor=#6c8ebf;" parent="1" source="GoWqnwifKlF_Yr-xNYbi-43" target="1AvOfJaNKrpmNgOsHSDn-11" edge="1">
          <mxGeometry relative="1" as="geometry">
            <mxPoint x="-1320" y="2060" as="targetPoint" />
          </mxGeometry>
        </mxCell>
        <mxCell id="GoWqnwifKlF_Yr-xNYbi-43" value="Панель выбора времени" style="rounded=1;whiteSpace=wrap;html=1;arcSize=22;fillColor=#dae8fc;strokeColor=#6c8ebf;" parent="1" vertex="1">
          <mxGeometry x="-1240" y="2100" width="120" height="40" as="geometry" />
        </mxCell>
        <mxCell id="oigtg8h2ie4QQOlHJKOF-4" style="edgeStyle=none;rounded=0;orthogonalLoop=1;jettySize=auto;html=1;exitX=0;exitY=0.5;exitDx=0;exitDy=0;entryX=1;entryY=0.5;entryDx=0;entryDy=0;fillColor=#dae8fc;strokeColor=#6c8ebf;" parent="1" source="GoWqnwifKlF_Yr-xNYbi-45" target="1AvOfJaNKrpmNgOsHSDn-2" edge="1">
          <mxGeometry relative="1" as="geometry">
            <mxPoint x="-1320" y="2030" as="targetPoint" />
          </mxGeometry>
        </mxCell>
        <mxCell id="oigtg8h2ie4QQOlHJKOF-5" style="edgeStyle=none;rounded=0;orthogonalLoop=1;jettySize=auto;html=1;exitX=0;exitY=0.25;exitDx=0;exitDy=0;entryX=1;entryY=0.5;entryDx=0;entryDy=0;fillColor=#dae8fc;strokeColor=#6c8ebf;" parent="1" source="GoWqnwifKlF_Yr-xNYbi-45" target="1AvOfJaNKrpmNgOsHSDn-1" edge="1">
          <mxGeometry relative="1" as="geometry">
            <mxPoint x="-1320" y="1970" as="targetPoint" />
          </mxGeometry>
        </mxCell>
        <mxCell id="GoWqnwifKlF_Yr-xNYbi-45" value="Панель выбора адреса" style="rounded=1;whiteSpace=wrap;html=1;arcSize=22;fillColor=#dae8fc;strokeColor=#6c8ebf;" parent="1" vertex="1">
          <mxGeometry x="-1240" y="1840" width="120" height="40" as="geometry" />
        </mxCell>
        <mxCell id="qn3d2HcTWaKksIYHcs9O-7" style="edgeStyle=none;rounded=0;orthogonalLoop=1;jettySize=auto;html=1;exitX=1;exitY=0.5;exitDx=0;exitDy=0;entryX=0;entryY=0.5;entryDx=0;entryDy=0;fillColor=#ffe6cc;strokeColor=#d79b00;" parent="1" source="qn3d2HcTWaKksIYHcs9O-5" target="GoWqnwifKlF_Yr-xNYbi-5" edge="1">
          <mxGeometry relative="1" as="geometry" />
        </mxCell>
        <mxCell id="qn3d2HcTWaKksIYHcs9O-15" style="edgeStyle=none;rounded=0;orthogonalLoop=1;jettySize=auto;html=1;exitX=1;exitY=0.5;exitDx=0;exitDy=0;entryX=0;entryY=0.5;entryDx=0;entryDy=0;fillColor=#ffe6cc;strokeColor=#d79b00;" parent="1" source="qn3d2HcTWaKksIYHcs9O-5" target="qn3d2HcTWaKksIYHcs9O-14" edge="1">
          <mxGeometry relative="1" as="geometry">
            <mxPoint x="-340" y="2120" as="targetPoint" />
          </mxGeometry>
        </mxCell>
        <mxCell id="OxW7yi1mNQBKnJ8u3WXz-6" style="edgeStyle=none;rounded=0;orthogonalLoop=1;jettySize=auto;html=1;exitX=1;exitY=0.5;exitDx=0;exitDy=0;entryX=0.5;entryY=1;entryDx=0;entryDy=0;fillColor=#ffe6cc;strokeColor=#d79b00;" parent="1" source="qn3d2HcTWaKksIYHcs9O-5" target="GoWqnwifKlF_Yr-xNYbi-4" edge="1">
          <mxGeometry relative="1" as="geometry">
            <mxPoint x="-330" y="2240" as="targetPoint" />
          </mxGeometry>
        </mxCell>
        <mxCell id="qn3d2HcTWaKksIYHcs9O-5" value="Логика" style="rounded=1;whiteSpace=wrap;html=1;arcSize=22;fillColor=#ffe6cc;strokeColor=#d79b00;" parent="1" vertex="1">
          <mxGeometry x="-570" y="2100" width="120" height="40" as="geometry" />
        </mxCell>
        <mxCell id="oigtg8h2ie4QQOlHJKOF-13" style="edgeStyle=none;rounded=0;orthogonalLoop=1;jettySize=auto;html=1;exitX=1;exitY=0.5;exitDx=0;exitDy=0;entryX=0;entryY=0.5;entryDx=0;entryDy=0;fillColor=#ffe6cc;strokeColor=#d79b00;" parent="1" source="qn3d2HcTWaKksIYHcs9O-14" target="1AvOfJaNKrpmNgOsHSDn-262" edge="1">
          <mxGeometry relative="1" as="geometry">
            <mxPoint x="10" y="2940" as="targetPoint" />
          </mxGeometry>
        </mxCell>
        <mxCell id="qn3d2HcTWaKksIYHcs9O-14" value="Расчёт времени и стоимости" style="rounded=1;whiteSpace=wrap;html=1;arcSize=22;fillColor=#ffe6cc;strokeColor=#d79b00;" parent="1" vertex="1">
          <mxGeometry x="-390" y="2919.5" width="120" height="40" as="geometry" />
        </mxCell>
        <mxCell id="oigtg8h2ie4QQOlHJKOF-1" style="rounded=0;orthogonalLoop=1;jettySize=auto;html=1;exitX=0;exitY=0.5;exitDx=0;exitDy=0;entryX=1;entryY=0.5;entryDx=0;entryDy=0;fillColor=#dae8fc;strokeColor=#6c8ebf;" parent="1" source="OxW7yi1mNQBKnJ8u3WXz-2" target="1AvOfJaNKrpmNgOsHSDn-16" edge="1">
          <mxGeometry relative="1" as="geometry">
            <mxPoint x="-1340" y="2707.735294117647" as="targetPoint" />
          </mxGeometry>
        </mxCell>
        <mxCell id="oigtg8h2ie4QQOlHJKOF-3" style="edgeStyle=none;rounded=0;orthogonalLoop=1;jettySize=auto;html=1;exitX=0;exitY=0.5;exitDx=0;exitDy=0;entryX=1;entryY=0.5;entryDx=0;entryDy=0;fillColor=#dae8fc;strokeColor=#6c8ebf;" parent="1" source="OxW7yi1mNQBKnJ8u3WXz-2" target="1AvOfJaNKrpmNgOsHSDn-17" edge="1">
          <mxGeometry relative="1" as="geometry">
            <mxPoint x="-1370" y="2999.5" as="targetPoint" />
          </mxGeometry>
        </mxCell>
        <mxCell id="OxW7yi1mNQBKnJ8u3WXz-2" value="Панель выбора&lt;br&gt;вида транспорта и режима" style="rounded=1;whiteSpace=wrap;html=1;arcSize=22;fillColor=#dae8fc;strokeColor=#6c8ebf;" parent="1" vertex="1">
          <mxGeometry x="-1230" y="2789.5" width="120" height="40" as="geometry" />
        </mxCell>
        <mxCell id="1AvOfJaNKrpmNgOsHSDn-1" value="Откуда" style="rounded=1;whiteSpace=wrap;html=1;fillColor=#dae8fc;strokeColor=#6c8ebf;" parent="1" vertex="1">
          <mxGeometry x="-1470" y="1740" width="80" height="30" as="geometry" />
        </mxCell>
        <mxCell id="1AvOfJaNKrpmNgOsHSDn-2" value="Куда" style="rounded=1;whiteSpace=wrap;html=1;fillColor=#dae8fc;strokeColor=#6c8ebf;" parent="1" vertex="1">
          <mxGeometry x="-1460" y="1845" width="60" height="30" as="geometry" />
        </mxCell>
        <mxCell id="1AvOfJaNKrpmNgOsHSDn-3" value="Поля пустые" style="rounded=1;whiteSpace=wrap;html=1;fillColor=#dae8fc;strokeColor=#6c8ebf;" parent="1" vertex="1">
          <mxGeometry x="-1940" y="1940" width="120" height="70" as="geometry" />
        </mxCell>
        <mxCell id="1AvOfJaNKrpmNgOsHSDn-4" value="" style="endArrow=classic;html=1;rounded=0;entryX=1;entryY=0.5;entryDx=0;entryDy=0;exitX=0;exitY=0.5;exitDx=0;exitDy=0;fillColor=#dae8fc;strokeColor=#6c8ebf;" parent="1" source="1AvOfJaNKrpmNgOsHSDn-6" target="1AvOfJaNKrpmNgOsHSDn-3" edge="1">
          <mxGeometry width="50" height="50" relative="1" as="geometry">
            <mxPoint x="-1710" y="1750" as="sourcePoint" />
            <mxPoint x="-1190" y="1800" as="targetPoint" />
          </mxGeometry>
        </mxCell>
        <mxCell id="1AvOfJaNKrpmNgOsHSDn-5" value="" style="endArrow=classic;html=1;rounded=0;entryX=1;entryY=0.5;entryDx=0;entryDy=0;exitX=0;exitY=0.5;exitDx=0;exitDy=0;fillColor=#dae8fc;strokeColor=#6c8ebf;" parent="1" source="1AvOfJaNKrpmNgOsHSDn-7" target="1AvOfJaNKrpmNgOsHSDn-3" edge="1">
          <mxGeometry width="50" height="50" relative="1" as="geometry">
            <mxPoint x="-1720" y="1850" as="sourcePoint" />
            <mxPoint x="-1190" y="1800" as="targetPoint" />
          </mxGeometry>
        </mxCell>
        <mxCell id="1AvOfJaNKrpmNgOsHSDn-6" value="Точка А" style="rounded=1;whiteSpace=wrap;html=1;fillColor=#dae8fc;strokeColor=#6c8ebf;" parent="1" vertex="1">
          <mxGeometry x="-1650" y="1740" width="80" height="30" as="geometry" />
        </mxCell>
        <mxCell id="1AvOfJaNKrpmNgOsHSDn-7" value="Точка B" style="rounded=1;whiteSpace=wrap;html=1;fillColor=#dae8fc;strokeColor=#6c8ebf;" parent="1" vertex="1">
          <mxGeometry x="-1645" y="1845" width="70" height="30" as="geometry" />
        </mxCell>
        <mxCell id="1AvOfJaNKrpmNgOsHSDn-8" value="" style="endArrow=classic;html=1;rounded=0;entryX=1;entryY=0.5;entryDx=0;entryDy=0;exitX=0;exitY=0.5;exitDx=0;exitDy=0;fillColor=#dae8fc;strokeColor=#6c8ebf;" parent="1" source="1AvOfJaNKrpmNgOsHSDn-2" target="1AvOfJaNKrpmNgOsHSDn-7" edge="1">
          <mxGeometry width="50" height="50" relative="1" as="geometry">
            <mxPoint x="-1240" y="1930" as="sourcePoint" />
            <mxPoint x="-1190" y="1880" as="targetPoint" />
          </mxGeometry>
        </mxCell>
        <mxCell id="1AvOfJaNKrpmNgOsHSDn-10" value="" style="endArrow=classic;html=1;rounded=0;entryX=1;entryY=0.5;entryDx=0;entryDy=0;exitX=0;exitY=0.5;exitDx=0;exitDy=0;fillColor=#dae8fc;strokeColor=#6c8ebf;" parent="1" source="1AvOfJaNKrpmNgOsHSDn-1" target="1AvOfJaNKrpmNgOsHSDn-6" edge="1">
          <mxGeometry width="50" height="50" relative="1" as="geometry">
            <mxPoint x="-1240" y="1930" as="sourcePoint" />
            <mxPoint x="-1190" y="1880" as="targetPoint" />
          </mxGeometry>
        </mxCell>
        <mxCell id="1AvOfJaNKrpmNgOsHSDn-11" value="Часы" style="rounded=1;whiteSpace=wrap;html=1;fillColor=#dae8fc;strokeColor=#6c8ebf;" parent="1" vertex="1">
          <mxGeometry x="-1480" y="2020" width="60" height="30" as="geometry" />
        </mxCell>
        <mxCell id="1AvOfJaNKrpmNgOsHSDn-12" value="Минуты" style="rounded=1;whiteSpace=wrap;html=1;fillColor=#dae8fc;strokeColor=#6c8ebf;" parent="1" vertex="1">
          <mxGeometry x="-1485" y="2170" width="70" height="30" as="geometry" />
        </mxCell>
        <mxCell id="1AvOfJaNKrpmNgOsHSDn-14" value="" style="endArrow=classic;html=1;rounded=0;entryX=1;entryY=0.5;entryDx=0;entryDy=0;exitX=0;exitY=0.5;exitDx=0;exitDy=0;fillColor=#dae8fc;strokeColor=#6c8ebf;" parent="1" source="1AvOfJaNKrpmNgOsHSDn-11" target="1AvOfJaNKrpmNgOsHSDn-3" edge="1">
          <mxGeometry width="50" height="50" relative="1" as="geometry">
            <mxPoint x="-1240" y="2090" as="sourcePoint" />
            <mxPoint x="-1190" y="2040" as="targetPoint" />
          </mxGeometry>
        </mxCell>
        <mxCell id="1AvOfJaNKrpmNgOsHSDn-15" value="" style="endArrow=classic;html=1;rounded=0;entryX=1;entryY=0.5;entryDx=0;entryDy=0;exitX=0;exitY=0.5;exitDx=0;exitDy=0;fillColor=#dae8fc;strokeColor=#6c8ebf;" parent="1" source="1AvOfJaNKrpmNgOsHSDn-12" target="1AvOfJaNKrpmNgOsHSDn-3" edge="1">
          <mxGeometry width="50" height="50" relative="1" as="geometry">
            <mxPoint x="-1240" y="2090" as="sourcePoint" />
            <mxPoint x="-1190" y="2040" as="targetPoint" />
          </mxGeometry>
        </mxCell>
        <mxCell id="1AvOfJaNKrpmNgOsHSDn-16" value="Выбор вида режима" style="rounded=1;whiteSpace=wrap;html=1;fillColor=#dae8fc;strokeColor=#6c8ebf;" parent="1" vertex="1">
          <mxGeometry x="-1470" y="2689.5" width="130" height="40" as="geometry" />
        </mxCell>
        <mxCell id="1AvOfJaNKrpmNgOsHSDn-17" value="Выбор вида транспорта" style="rounded=1;whiteSpace=wrap;html=1;fillColor=#dae8fc;strokeColor=#6c8ebf;" parent="1" vertex="1">
          <mxGeometry x="-1602.5" y="2919.5" width="100" height="40" as="geometry" />
        </mxCell>
        <mxCell id="1AvOfJaNKrpmNgOsHSDn-18" value="Оптимальный" style="rounded=1;whiteSpace=wrap;html=1;fillColor=#dae8fc;strokeColor=#6c8ebf;" parent="1" vertex="1">
          <mxGeometry x="-1730" y="2610.5" width="90" height="30" as="geometry" />
        </mxCell>
        <mxCell id="1AvOfJaNKrpmNgOsHSDn-19" value="Быстрый" style="rounded=1;whiteSpace=wrap;html=1;fillColor=#dae8fc;strokeColor=#6c8ebf;" parent="1" vertex="1">
          <mxGeometry x="-1725" y="2694.5" width="80" height="30" as="geometry" />
        </mxCell>
        <mxCell id="1AvOfJaNKrpmNgOsHSDn-20" value="Свой" style="rounded=1;whiteSpace=wrap;html=1;fillColor=#dae8fc;strokeColor=#6c8ebf;" parent="1" vertex="1">
          <mxGeometry x="-1720" y="2769.5" width="70" height="30" as="geometry" />
        </mxCell>
        <mxCell id="1AvOfJaNKrpmNgOsHSDn-21" value="" style="endArrow=classic;html=1;rounded=0;entryX=1;entryY=0.5;entryDx=0;entryDy=0;exitX=0;exitY=0.5;exitDx=0;exitDy=0;fillColor=#dae8fc;strokeColor=#6c8ebf;" parent="1" source="1AvOfJaNKrpmNgOsHSDn-16" target="1AvOfJaNKrpmNgOsHSDn-18" edge="1">
          <mxGeometry width="50" height="50" relative="1" as="geometry">
            <mxPoint x="-1230" y="2659.5" as="sourcePoint" />
            <mxPoint x="-1180" y="2609.5" as="targetPoint" />
          </mxGeometry>
        </mxCell>
        <mxCell id="1AvOfJaNKrpmNgOsHSDn-22" value="" style="endArrow=classic;html=1;rounded=0;entryX=1;entryY=0.5;entryDx=0;entryDy=0;exitX=0;exitY=0.5;exitDx=0;exitDy=0;fillColor=#dae8fc;strokeColor=#6c8ebf;" parent="1" source="1AvOfJaNKrpmNgOsHSDn-16" target="1AvOfJaNKrpmNgOsHSDn-19" edge="1">
          <mxGeometry width="50" height="50" relative="1" as="geometry">
            <mxPoint x="-1230" y="2659.5" as="sourcePoint" />
            <mxPoint x="-1180" y="2609.5" as="targetPoint" />
          </mxGeometry>
        </mxCell>
        <mxCell id="1AvOfJaNKrpmNgOsHSDn-23" value="" style="endArrow=classic;html=1;rounded=0;entryX=1;entryY=0.5;entryDx=0;entryDy=0;exitX=0;exitY=0.5;exitDx=0;exitDy=0;fillColor=#dae8fc;strokeColor=#6c8ebf;" parent="1" source="1AvOfJaNKrpmNgOsHSDn-16" target="1AvOfJaNKrpmNgOsHSDn-20" edge="1">
          <mxGeometry width="50" height="50" relative="1" as="geometry">
            <mxPoint x="-1230" y="2659.5" as="sourcePoint" />
            <mxPoint x="-1180" y="2609.5" as="targetPoint" />
          </mxGeometry>
        </mxCell>
        <mxCell id="1AvOfJaNKrpmNgOsHSDn-24" value="Режимы не выбраны" style="rounded=1;whiteSpace=wrap;html=1;fillColor=#dae8fc;strokeColor=#6c8ebf;" parent="1" vertex="1">
          <mxGeometry x="-2030" y="2674.5" width="160" height="70" as="geometry" />
        </mxCell>
        <mxCell id="1AvOfJaNKrpmNgOsHSDn-25" value="" style="endArrow=classic;html=1;rounded=0;entryX=1;entryY=0.5;entryDx=0;entryDy=0;exitX=0;exitY=0.5;exitDx=0;exitDy=0;fillColor=#dae8fc;strokeColor=#6c8ebf;" parent="1" source="1AvOfJaNKrpmNgOsHSDn-18" target="1AvOfJaNKrpmNgOsHSDn-24" edge="1">
          <mxGeometry width="50" height="50" relative="1" as="geometry">
            <mxPoint x="-1590" y="2689.5" as="sourcePoint" />
            <mxPoint x="-1540" y="2639.5" as="targetPoint" />
          </mxGeometry>
        </mxCell>
        <mxCell id="1AvOfJaNKrpmNgOsHSDn-26" value="" style="endArrow=classic;html=1;rounded=0;entryX=1;entryY=0.5;entryDx=0;entryDy=0;exitX=0;exitY=0.5;exitDx=0;exitDy=0;fillColor=#dae8fc;strokeColor=#6c8ebf;" parent="1" source="1AvOfJaNKrpmNgOsHSDn-19" target="1AvOfJaNKrpmNgOsHSDn-24" edge="1">
          <mxGeometry width="50" height="50" relative="1" as="geometry">
            <mxPoint x="-1590" y="2689.5" as="sourcePoint" />
            <mxPoint x="-1540" y="2639.5" as="targetPoint" />
          </mxGeometry>
        </mxCell>
        <mxCell id="1AvOfJaNKrpmNgOsHSDn-27" value="" style="endArrow=classic;html=1;rounded=0;entryX=1;entryY=0.5;entryDx=0;entryDy=0;exitX=0;exitY=0.5;exitDx=0;exitDy=0;fillColor=#dae8fc;strokeColor=#6c8ebf;" parent="1" source="1AvOfJaNKrpmNgOsHSDn-20" target="1AvOfJaNKrpmNgOsHSDn-24" edge="1">
          <mxGeometry width="50" height="50" relative="1" as="geometry">
            <mxPoint x="-1590" y="2689.5" as="sourcePoint" />
            <mxPoint x="-1540" y="2639.5" as="targetPoint" />
          </mxGeometry>
        </mxCell>
        <mxCell id="1AvOfJaNKrpmNgOsHSDn-28" value="Пешком" style="rounded=1;whiteSpace=wrap;html=1;fillColor=#dae8fc;strokeColor=#6c8ebf;" parent="1" vertex="1">
          <mxGeometry x="-1942.5" y="3149.5" width="80" height="30" as="geometry" />
        </mxCell>
        <mxCell id="1AvOfJaNKrpmNgOsHSDn-29" value="Самокат" style="rounded=1;whiteSpace=wrap;html=1;fillColor=#dae8fc;strokeColor=#6c8ebf;" parent="1" vertex="1">
          <mxGeometry x="-1832.5" y="3149.5" width="80" height="30" as="geometry" />
        </mxCell>
        <mxCell id="1AvOfJaNKrpmNgOsHSDn-30" value="Велосипед" style="rounded=1;whiteSpace=wrap;html=1;fillColor=#dae8fc;strokeColor=#6c8ebf;" parent="1" vertex="1">
          <mxGeometry x="-1722.5" y="3149.5" width="90" height="30" as="geometry" />
        </mxCell>
        <mxCell id="1AvOfJaNKrpmNgOsHSDn-31" value="Каршеринг" style="rounded=1;whiteSpace=wrap;html=1;fillColor=#dae8fc;strokeColor=#6c8ebf;" parent="1" vertex="1">
          <mxGeometry x="-1602.5" y="3149.5" width="90" height="30" as="geometry" />
        </mxCell>
        <mxCell id="1AvOfJaNKrpmNgOsHSDn-32" value="Такси" style="rounded=1;whiteSpace=wrap;html=1;fillColor=#dae8fc;strokeColor=#6c8ebf;" parent="1" vertex="1">
          <mxGeometry x="-1482.5" y="3149.5" width="80" height="30" as="geometry" />
        </mxCell>
        <mxCell id="1AvOfJaNKrpmNgOsHSDn-33" value="Собственный автомобиль" style="rounded=1;whiteSpace=wrap;html=1;fillColor=#dae8fc;strokeColor=#6c8ebf;" parent="1" vertex="1">
          <mxGeometry x="-1367.5" y="3149.5" width="110" height="35" as="geometry" />
        </mxCell>
        <mxCell id="1AvOfJaNKrpmNgOsHSDn-41" value="Панель переключения видов транспорта неактивна" style="rounded=1;whiteSpace=wrap;html=1;fillColor=#dae8fc;strokeColor=#6c8ebf;" parent="1" vertex="1">
          <mxGeometry x="-1642.5" y="3359.5" width="170" height="90" as="geometry" />
        </mxCell>
        <mxCell id="1AvOfJaNKrpmNgOsHSDn-48" value="Header" style="rounded=1;whiteSpace=wrap;html=1;fillColor=#dae8fc;strokeColor=#6c8ebf;" parent="1" vertex="1">
          <mxGeometry x="-955" y="1725" width="110" height="60" as="geometry" />
        </mxCell>
        <mxCell id="1AvOfJaNKrpmNgOsHSDn-49" value="" style="endArrow=classic;html=1;rounded=0;entryX=0.5;entryY=1;entryDx=0;entryDy=0;exitX=0.5;exitY=0;exitDx=0;exitDy=0;fillColor=#dae8fc;strokeColor=#6c8ebf;" parent="1" source="GoWqnwifKlF_Yr-xNYbi-3" target="1AvOfJaNKrpmNgOsHSDn-48" edge="1">
          <mxGeometry width="50" height="50" relative="1" as="geometry">
            <mxPoint x="-950" y="1880" as="sourcePoint" />
            <mxPoint x="-900" y="1830" as="targetPoint" />
          </mxGeometry>
        </mxCell>
        <mxCell id="1AvOfJaNKrpmNgOsHSDn-50" value="Footer" style="rounded=1;whiteSpace=wrap;html=1;fillColor=#dae8fc;strokeColor=#6c8ebf;" parent="1" vertex="1">
          <mxGeometry x="-955" y="2510" width="110" height="70" as="geometry" />
        </mxCell>
        <mxCell id="1AvOfJaNKrpmNgOsHSDn-51" value="" style="endArrow=classic;html=1;rounded=0;entryX=0.5;entryY=0;entryDx=0;entryDy=0;exitX=0.5;exitY=1;exitDx=0;exitDy=0;fillColor=#dae8fc;strokeColor=#6c8ebf;" parent="1" source="GoWqnwifKlF_Yr-xNYbi-3" target="1AvOfJaNKrpmNgOsHSDn-50" edge="1">
          <mxGeometry width="50" height="50" relative="1" as="geometry">
            <mxPoint x="-900" y="2290" as="sourcePoint" />
            <mxPoint x="-850" y="2240" as="targetPoint" />
          </mxGeometry>
        </mxCell>
        <mxCell id="1AvOfJaNKrpmNgOsHSDn-53" value="Яндекс.Маршруты" style="rounded=1;whiteSpace=wrap;html=1;fillColor=#dae8fc;strokeColor=#6c8ebf;" parent="1" vertex="1">
          <mxGeometry x="-957.5" y="1550" width="115" height="60" as="geometry" />
        </mxCell>
        <mxCell id="1AvOfJaNKrpmNgOsHSDn-54" value="" style="endArrow=classic;html=1;rounded=0;entryX=0.5;entryY=1;entryDx=0;entryDy=0;exitX=0.5;exitY=0;exitDx=0;exitDy=0;fillColor=#dae8fc;strokeColor=#6c8ebf;" parent="1" source="1AvOfJaNKrpmNgOsHSDn-48" target="1AvOfJaNKrpmNgOsHSDn-53" edge="1">
          <mxGeometry width="50" height="50" relative="1" as="geometry">
            <mxPoint x="-900" y="1720" as="sourcePoint" />
            <mxPoint x="-850" y="1760" as="targetPoint" />
          </mxGeometry>
        </mxCell>
        <mxCell id="1AvOfJaNKrpmNgOsHSDn-56" value="Гиперссылка" style="rounded=1;whiteSpace=wrap;html=1;fillColor=#dae8fc;strokeColor=#6c8ebf;" parent="1" vertex="1">
          <mxGeometry x="-960" y="1400" width="120" height="60" as="geometry" />
        </mxCell>
        <mxCell id="1AvOfJaNKrpmNgOsHSDn-57" value="" style="endArrow=classic;html=1;rounded=0;entryX=0.5;entryY=1;entryDx=0;entryDy=0;fillColor=#dae8fc;strokeColor=#6c8ebf;" parent="1" target="1AvOfJaNKrpmNgOsHSDn-56" edge="1">
          <mxGeometry width="50" height="50" relative="1" as="geometry">
            <mxPoint x="-900" y="1550" as="sourcePoint" />
            <mxPoint x="-850" y="1600" as="targetPoint" />
          </mxGeometry>
        </mxCell>
        <mxCell id="1AvOfJaNKrpmNgOsHSDn-58" value="?" style="rounded=1;whiteSpace=wrap;html=1;fillColor=#dae8fc;strokeColor=#6c8ebf;" parent="1" vertex="1">
          <mxGeometry x="-960" y="1260" width="120" height="60" as="geometry" />
        </mxCell>
        <mxCell id="1AvOfJaNKrpmNgOsHSDn-59" value="" style="endArrow=classic;html=1;rounded=0;exitX=0.5;exitY=0;exitDx=0;exitDy=0;entryX=0.5;entryY=1;entryDx=0;entryDy=0;fillColor=#dae8fc;strokeColor=#6c8ebf;" parent="1" source="1AvOfJaNKrpmNgOsHSDn-56" target="1AvOfJaNKrpmNgOsHSDn-58" edge="1">
          <mxGeometry width="50" height="50" relative="1" as="geometry">
            <mxPoint x="-900" y="1410" as="sourcePoint" />
            <mxPoint x="-850" y="1360" as="targetPoint" />
          </mxGeometry>
        </mxCell>
        <mxCell id="1AvOfJaNKrpmNgOsHSDn-60" value="&lt;br&gt;&lt;b style=&quot;background: linear-gradient(90deg, rgb(211, 227, 253) 50%, rgba(0, 0, 0, 0) 50%) 0% 0px / 200% 100% no-repeat rgb(255, 255, 255); color: rgb(4, 12, 40); font-weight: 500; animation: 0.75s cubic-bezier(0.05, 0.7, 0.1, 1) 0.25s 1 normal forwards running highlight; font-family: &amp;quot;Google Sans&amp;quot;, Arial, sans-serif; font-size: 20px; font-style: normal; font-variant-ligatures: normal; font-variant-caps: normal; letter-spacing: normal; orphans: 2; text-align: left; text-indent: 0px; text-transform: none; widows: 2; word-spacing: 0px; -webkit-text-stroke-width: 0px; white-space: normal; text-decoration-thickness: initial; text-decoration-style: initial; text-decoration-color: initial;&quot;&gt;©Яндекс&lt;/b&gt;&lt;div&gt;&lt;br/&gt;&lt;/div&gt;" style="rounded=1;whiteSpace=wrap;html=1;fillColor=#dae8fc;strokeColor=#6c8ebf;" parent="1" vertex="1">
          <mxGeometry x="-1050" y="2690" width="110" height="60" as="geometry" />
        </mxCell>
        <mxCell id="1AvOfJaNKrpmNgOsHSDn-61" value="Условия использования" style="rounded=1;whiteSpace=wrap;html=1;fillColor=#dae8fc;strokeColor=#6c8ebf;" parent="1" vertex="1">
          <mxGeometry x="-860" y="2690" width="120" height="60" as="geometry" />
        </mxCell>
        <mxCell id="1AvOfJaNKrpmNgOsHSDn-62" value="" style="endArrow=classic;html=1;rounded=0;entryX=0.5;entryY=0;entryDx=0;entryDy=0;exitX=0.5;exitY=1;exitDx=0;exitDy=0;fillColor=#dae8fc;strokeColor=#6c8ebf;" parent="1" source="1AvOfJaNKrpmNgOsHSDn-50" target="1AvOfJaNKrpmNgOsHSDn-61" edge="1">
          <mxGeometry width="50" height="50" relative="1" as="geometry">
            <mxPoint x="-990" y="2730" as="sourcePoint" />
            <mxPoint x="-940" y="2680" as="targetPoint" />
          </mxGeometry>
        </mxCell>
        <mxCell id="1AvOfJaNKrpmNgOsHSDn-63" value="" style="endArrow=classic;html=1;rounded=0;exitX=0.5;exitY=1;exitDx=0;exitDy=0;entryX=0.5;entryY=0;entryDx=0;entryDy=0;fillColor=#dae8fc;strokeColor=#6c8ebf;" parent="1" source="1AvOfJaNKrpmNgOsHSDn-50" target="1AvOfJaNKrpmNgOsHSDn-60" edge="1">
          <mxGeometry width="50" height="50" relative="1" as="geometry">
            <mxPoint x="-990" y="2730" as="sourcePoint" />
            <mxPoint x="-940" y="2680" as="targetPoint" />
          </mxGeometry>
        </mxCell>
        <mxCell id="1AvOfJaNKrpmNgOsHSDn-64" value="Гиперссылка" style="rounded=1;whiteSpace=wrap;html=1;fillColor=#dae8fc;strokeColor=#6c8ebf;" parent="1" vertex="1">
          <mxGeometry x="-1055" y="2850" width="120" height="60" as="geometry" />
        </mxCell>
        <mxCell id="1AvOfJaNKrpmNgOsHSDn-65" value="Гиперссылка" style="rounded=1;whiteSpace=wrap;html=1;fillColor=#dae8fc;strokeColor=#6c8ebf;" parent="1" vertex="1">
          <mxGeometry x="-860" y="2850" width="120" height="60" as="geometry" />
        </mxCell>
        <mxCell id="1AvOfJaNKrpmNgOsHSDn-66" value="" style="endArrow=classic;html=1;rounded=0;entryX=0.5;entryY=0;entryDx=0;entryDy=0;exitX=0.5;exitY=1;exitDx=0;exitDy=0;fillColor=#dae8fc;strokeColor=#6c8ebf;" parent="1" source="1AvOfJaNKrpmNgOsHSDn-60" target="1AvOfJaNKrpmNgOsHSDn-64" edge="1">
          <mxGeometry width="50" height="50" relative="1" as="geometry">
            <mxPoint x="-990" y="2730" as="sourcePoint" />
            <mxPoint x="-940" y="2680" as="targetPoint" />
          </mxGeometry>
        </mxCell>
        <mxCell id="1AvOfJaNKrpmNgOsHSDn-67" value="" style="endArrow=classic;html=1;rounded=0;entryX=0.5;entryY=0;entryDx=0;entryDy=0;exitX=0.5;exitY=1;exitDx=0;exitDy=0;fillColor=#dae8fc;strokeColor=#6c8ebf;" parent="1" source="1AvOfJaNKrpmNgOsHSDn-61" target="1AvOfJaNKrpmNgOsHSDn-65" edge="1">
          <mxGeometry width="50" height="50" relative="1" as="geometry">
            <mxPoint x="-990" y="2730" as="sourcePoint" />
            <mxPoint x="-940" y="2680" as="targetPoint" />
          </mxGeometry>
        </mxCell>
        <mxCell id="1AvOfJaNKrpmNgOsHSDn-68" value="?" style="rounded=1;whiteSpace=wrap;html=1;fillColor=#dae8fc;strokeColor=#6c8ebf;" parent="1" vertex="1">
          <mxGeometry x="-1055" y="3000" width="120" height="60" as="geometry" />
        </mxCell>
        <mxCell id="1AvOfJaNKrpmNgOsHSDn-69" value="?" style="rounded=1;whiteSpace=wrap;html=1;fillColor=#dae8fc;strokeColor=#6c8ebf;" parent="1" vertex="1">
          <mxGeometry x="-860" y="3000" width="120" height="60" as="geometry" />
        </mxCell>
        <mxCell id="1AvOfJaNKrpmNgOsHSDn-70" value="" style="endArrow=classic;html=1;rounded=0;exitX=0.5;exitY=1;exitDx=0;exitDy=0;entryX=0.5;entryY=0;entryDx=0;entryDy=0;fillColor=#dae8fc;strokeColor=#6c8ebf;" parent="1" source="1AvOfJaNKrpmNgOsHSDn-64" target="1AvOfJaNKrpmNgOsHSDn-68" edge="1">
          <mxGeometry width="50" height="50" relative="1" as="geometry">
            <mxPoint x="-990" y="2970" as="sourcePoint" />
            <mxPoint x="-940" y="2920" as="targetPoint" />
          </mxGeometry>
        </mxCell>
        <mxCell id="1AvOfJaNKrpmNgOsHSDn-71" value="" style="endArrow=classic;html=1;rounded=0;exitX=0.5;exitY=1;exitDx=0;exitDy=0;entryX=0.5;entryY=0;entryDx=0;entryDy=0;fillColor=#dae8fc;strokeColor=#6c8ebf;" parent="1" source="1AvOfJaNKrpmNgOsHSDn-65" target="1AvOfJaNKrpmNgOsHSDn-69" edge="1">
          <mxGeometry width="50" height="50" relative="1" as="geometry">
            <mxPoint x="-990" y="2970" as="sourcePoint" />
            <mxPoint x="-940" y="2920" as="targetPoint" />
          </mxGeometry>
        </mxCell>
        <mxCell id="1AvOfJaNKrpmNgOsHSDn-72" value="Карта" style="rounded=1;whiteSpace=wrap;html=1;fillColor=#dae8fc;strokeColor=#6c8ebf;" parent="1" vertex="1">
          <mxGeometry x="-1310" y="1490" width="120" height="60" as="geometry" />
        </mxCell>
        <mxCell id="1AvOfJaNKrpmNgOsHSDn-73" value="" style="endArrow=classic;html=1;rounded=0;exitX=0.25;exitY=0;exitDx=0;exitDy=0;entryX=0.5;entryY=1;entryDx=0;entryDy=0;fillColor=#dae8fc;strokeColor=#6c8ebf;" parent="1" source="GoWqnwifKlF_Yr-xNYbi-3" target="1AvOfJaNKrpmNgOsHSDn-72" edge="1">
          <mxGeometry width="50" height="50" relative="1" as="geometry">
            <mxPoint x="-990" y="1850" as="sourcePoint" />
            <mxPoint x="-940" y="1800" as="targetPoint" />
          </mxGeometry>
        </mxCell>
        <mxCell id="1AvOfJaNKrpmNgOsHSDn-74" value="Скроллер" style="rounded=1;whiteSpace=wrap;html=1;fillColor=#dae8fc;strokeColor=#6c8ebf;" parent="1" vertex="1">
          <mxGeometry x="-1530" y="1370" width="90" height="50" as="geometry" />
        </mxCell>
        <mxCell id="1AvOfJaNKrpmNgOsHSDn-75" value="" style="endArrow=classic;html=1;rounded=0;exitX=0.01;exitY=0.097;exitDx=0;exitDy=0;exitPerimeter=0;fillColor=#dae8fc;strokeColor=#6c8ebf;" parent="1" source="1AvOfJaNKrpmNgOsHSDn-72" target="1AvOfJaNKrpmNgOsHSDn-74" edge="1">
          <mxGeometry width="50" height="50" relative="1" as="geometry">
            <mxPoint x="-1300" y="1480" as="sourcePoint" />
            <mxPoint x="-1250" y="1430" as="targetPoint" />
          </mxGeometry>
        </mxCell>
        <mxCell id="1AvOfJaNKrpmNgOsHSDn-76" value="+" style="rounded=1;whiteSpace=wrap;html=1;fillColor=#dae8fc;strokeColor=#6c8ebf;" parent="1" vertex="1">
          <mxGeometry x="-1505" y="1210" width="40" height="30" as="geometry" />
        </mxCell>
        <mxCell id="1AvOfJaNKrpmNgOsHSDn-77" value="" style="endArrow=classic;html=1;rounded=0;entryX=0.5;entryY=1;entryDx=0;entryDy=0;exitX=0.5;exitY=0;exitDx=0;exitDy=0;fillColor=#dae8fc;strokeColor=#6c8ebf;" parent="1" source="1AvOfJaNKrpmNgOsHSDn-74" target="1AvOfJaNKrpmNgOsHSDn-76" edge="1">
          <mxGeometry width="50" height="50" relative="1" as="geometry">
            <mxPoint x="-1550" y="1500" as="sourcePoint" />
            <mxPoint x="-1500" y="1450" as="targetPoint" />
          </mxGeometry>
        </mxCell>
        <mxCell id="1AvOfJaNKrpmNgOsHSDn-78" value="-" style="rounded=1;whiteSpace=wrap;html=1;fillColor=#dae8fc;strokeColor=#6c8ebf;" parent="1" vertex="1">
          <mxGeometry x="-1707.5" y="1380" width="40" height="30" as="geometry" />
        </mxCell>
        <mxCell id="1AvOfJaNKrpmNgOsHSDn-79" value="" style="endArrow=classic;html=1;rounded=0;entryX=1;entryY=0.5;entryDx=0;entryDy=0;exitX=0;exitY=0.5;exitDx=0;exitDy=0;fillColor=#dae8fc;strokeColor=#6c8ebf;" parent="1" source="1AvOfJaNKrpmNgOsHSDn-74" target="1AvOfJaNKrpmNgOsHSDn-78" edge="1">
          <mxGeometry width="50" height="50" relative="1" as="geometry">
            <mxPoint x="-1550" y="1500" as="sourcePoint" />
            <mxPoint x="-1500" y="1450" as="targetPoint" />
          </mxGeometry>
        </mxCell>
        <mxCell id="1AvOfJaNKrpmNgOsHSDn-80" value="Ползунок" style="rounded=1;whiteSpace=wrap;html=1;fillColor=#dae8fc;strokeColor=#6c8ebf;" parent="1" vertex="1">
          <mxGeometry x="-1727.5" y="1210" width="80" height="40" as="geometry" />
        </mxCell>
        <mxCell id="1AvOfJaNKrpmNgOsHSDn-81" value="" style="endArrow=classic;html=1;rounded=0;entryX=1;entryY=1;entryDx=0;entryDy=0;exitX=0;exitY=0;exitDx=0;exitDy=0;fillColor=#dae8fc;strokeColor=#6c8ebf;" parent="1" source="1AvOfJaNKrpmNgOsHSDn-74" target="1AvOfJaNKrpmNgOsHSDn-80" edge="1">
          <mxGeometry width="50" height="50" relative="1" as="geometry">
            <mxPoint x="-1550" y="1500" as="sourcePoint" />
            <mxPoint x="-1500" y="1450" as="targetPoint" />
          </mxGeometry>
        </mxCell>
        <mxCell id="1AvOfJaNKrpmNgOsHSDn-82" value="Окно summary" style="rounded=1;whiteSpace=wrap;html=1;fillColor=#dae8fc;strokeColor=#6c8ebf;" parent="1" vertex="1">
          <mxGeometry x="-1240" y="2340" width="120" height="60" as="geometry" />
        </mxCell>
        <mxCell id="1AvOfJaNKrpmNgOsHSDn-83" value="" style="endArrow=classic;html=1;rounded=0;entryX=1;entryY=0.5;entryDx=0;entryDy=0;exitX=0;exitY=0.5;exitDx=0;exitDy=0;fillColor=#dae8fc;strokeColor=#6c8ebf;" parent="1" source="GoWqnwifKlF_Yr-xNYbi-3" target="1AvOfJaNKrpmNgOsHSDn-82" edge="1">
          <mxGeometry width="50" height="50" relative="1" as="geometry">
            <mxPoint x="-1390" y="2230" as="sourcePoint" />
            <mxPoint x="-1340" y="2180" as="targetPoint" />
          </mxGeometry>
        </mxCell>
        <mxCell id="1AvOfJaNKrpmNgOsHSDn-84" value="Цена" style="rounded=1;whiteSpace=wrap;html=1;fillColor=#dae8fc;strokeColor=#6c8ebf;" parent="1" vertex="1">
          <mxGeometry x="-1430" y="2280" width="70" height="30" as="geometry" />
        </mxCell>
        <mxCell id="1AvOfJaNKrpmNgOsHSDn-85" value="Время в пути" style="rounded=1;whiteSpace=wrap;html=1;fillColor=#dae8fc;strokeColor=#6c8ebf;" parent="1" vertex="1">
          <mxGeometry x="-1450" y="2355" width="110" height="30" as="geometry" />
        </mxCell>
        <mxCell id="1AvOfJaNKrpmNgOsHSDn-86" value="Вызвать такси" style="rounded=1;whiteSpace=wrap;html=1;fillColor=#dae8fc;strokeColor=#6c8ebf;" parent="1" vertex="1">
          <mxGeometry x="-1705" y="2460" width="100" height="40" as="geometry" />
        </mxCell>
        <mxCell id="1AvOfJaNKrpmNgOsHSDn-87" value="" style="endArrow=classic;html=1;rounded=0;entryX=1;entryY=0.5;entryDx=0;entryDy=0;exitX=0;exitY=0.5;exitDx=0;exitDy=0;fillColor=#dae8fc;strokeColor=#6c8ebf;" parent="1" source="1AvOfJaNKrpmNgOsHSDn-82" target="1AvOfJaNKrpmNgOsHSDn-84" edge="1">
          <mxGeometry width="50" height="50" relative="1" as="geometry">
            <mxPoint x="-1390" y="2410" as="sourcePoint" />
            <mxPoint x="-1340" y="2360" as="targetPoint" />
          </mxGeometry>
        </mxCell>
        <mxCell id="1AvOfJaNKrpmNgOsHSDn-88" value="" style="endArrow=classic;html=1;rounded=0;exitX=0;exitY=0.5;exitDx=0;exitDy=0;entryX=1;entryY=0.5;entryDx=0;entryDy=0;fillColor=#dae8fc;strokeColor=#6c8ebf;" parent="1" source="1AvOfJaNKrpmNgOsHSDn-82" target="1AvOfJaNKrpmNgOsHSDn-85" edge="1">
          <mxGeometry width="50" height="50" relative="1" as="geometry">
            <mxPoint x="-1390" y="2410" as="sourcePoint" />
            <mxPoint x="-1340" y="2360" as="targetPoint" />
          </mxGeometry>
        </mxCell>
        <mxCell id="1AvOfJaNKrpmNgOsHSDn-90" value="Окно отсутствует, пока не составлен маршрут" style="rounded=1;whiteSpace=wrap;html=1;fillColor=#dae8fc;strokeColor=#6c8ebf;" parent="1" vertex="1">
          <mxGeometry x="-1740" y="2325" width="170" height="90" as="geometry" />
        </mxCell>
        <mxCell id="1AvOfJaNKrpmNgOsHSDn-91" value="" style="endArrow=classic;html=1;rounded=0;entryX=1;entryY=0.5;entryDx=0;entryDy=0;exitX=0;exitY=0.5;exitDx=0;exitDy=0;fillColor=#dae8fc;strokeColor=#6c8ebf;" parent="1" source="1AvOfJaNKrpmNgOsHSDn-84" target="1AvOfJaNKrpmNgOsHSDn-90" edge="1">
          <mxGeometry width="50" height="50" relative="1" as="geometry">
            <mxPoint x="-1390" y="2410" as="sourcePoint" />
            <mxPoint x="-1340" y="2360" as="targetPoint" />
          </mxGeometry>
        </mxCell>
        <mxCell id="1AvOfJaNKrpmNgOsHSDn-92" value="" style="endArrow=classic;html=1;rounded=0;entryX=1;entryY=0.5;entryDx=0;entryDy=0;exitX=0;exitY=0.5;exitDx=0;exitDy=0;fillColor=#dae8fc;strokeColor=#6c8ebf;" parent="1" source="1AvOfJaNKrpmNgOsHSDn-85" target="1AvOfJaNKrpmNgOsHSDn-90" edge="1">
          <mxGeometry width="50" height="50" relative="1" as="geometry">
            <mxPoint x="-1390" y="2410" as="sourcePoint" />
            <mxPoint x="-1340" y="2360" as="targetPoint" />
          </mxGeometry>
        </mxCell>
        <mxCell id="1AvOfJaNKrpmNgOsHSDn-95" value="Если активный вид транспорта - такси" style="rounded=1;whiteSpace=wrap;html=1;fillColor=#dae8fc;strokeColor=#6c8ebf;" parent="1" vertex="1">
          <mxGeometry x="-1460" y="2450" width="130" height="60" as="geometry" />
        </mxCell>
        <mxCell id="1AvOfJaNKrpmNgOsHSDn-97" value="Поле ввода часов" style="rounded=1;whiteSpace=wrap;html=1;fillColor=#ffe6cc;strokeColor=#d79b00;" parent="1" vertex="1">
          <mxGeometry x="-70" y="1450" width="120" height="60" as="geometry" />
        </mxCell>
        <mxCell id="1AvOfJaNKrpmNgOsHSDn-98" value="" style="endArrow=classic;html=1;rounded=0;exitX=0.5;exitY=0;exitDx=0;exitDy=0;entryX=0.5;entryY=1;entryDx=0;entryDy=0;fillColor=#ffe6cc;strokeColor=#d79b00;" parent="1" source="GoWqnwifKlF_Yr-xNYbi-4" target="1AvOfJaNKrpmNgOsHSDn-97" edge="1">
          <mxGeometry width="50" height="50" relative="1" as="geometry">
            <mxPoint x="40" y="1520" as="sourcePoint" />
            <mxPoint x="90" y="1470" as="targetPoint" />
          </mxGeometry>
        </mxCell>
        <mxCell id="1AvOfJaNKrpmNgOsHSDn-99" value="Формат 24 часа" style="rounded=1;whiteSpace=wrap;html=1;fillColor=#ffe6cc;strokeColor=#d79b00;" parent="1" vertex="1">
          <mxGeometry x="-70" y="1280" width="120" height="60" as="geometry" />
        </mxCell>
        <mxCell id="1AvOfJaNKrpmNgOsHSDn-100" value="" style="endArrow=classic;html=1;rounded=0;entryX=0.5;entryY=1;entryDx=0;entryDy=0;exitX=0.5;exitY=0;exitDx=0;exitDy=0;fillColor=#ffe6cc;strokeColor=#d79b00;" parent="1" source="1AvOfJaNKrpmNgOsHSDn-97" target="1AvOfJaNKrpmNgOsHSDn-99" edge="1">
          <mxGeometry width="50" height="50" relative="1" as="geometry">
            <mxPoint x="40" y="1520" as="sourcePoint" />
            <mxPoint x="90" y="1470" as="targetPoint" />
          </mxGeometry>
        </mxCell>
        <mxCell id="1AvOfJaNKrpmNgOsHSDn-101" value="Часы" style="rounded=1;whiteSpace=wrap;html=1;fillColor=#ffe6cc;strokeColor=#d79b00;" parent="1" vertex="1">
          <mxGeometry x="-190" y="1130" width="120" height="60" as="geometry" />
        </mxCell>
        <mxCell id="1AvOfJaNKrpmNgOsHSDn-102" value="Минуты" style="rounded=1;whiteSpace=wrap;html=1;fillColor=#ffe6cc;strokeColor=#d79b00;" parent="1" vertex="1">
          <mxGeometry x="50" y="1130" width="120" height="60" as="geometry" />
        </mxCell>
        <mxCell id="1AvOfJaNKrpmNgOsHSDn-103" value="" style="endArrow=classic;html=1;rounded=0;entryX=0.5;entryY=1;entryDx=0;entryDy=0;exitX=0.5;exitY=0;exitDx=0;exitDy=0;fillColor=#ffe6cc;strokeColor=#d79b00;" parent="1" source="1AvOfJaNKrpmNgOsHSDn-99" target="1AvOfJaNKrpmNgOsHSDn-102" edge="1">
          <mxGeometry width="50" height="50" relative="1" as="geometry">
            <mxPoint x="70" y="1390" as="sourcePoint" />
            <mxPoint x="120" y="1340" as="targetPoint" />
          </mxGeometry>
        </mxCell>
        <mxCell id="1AvOfJaNKrpmNgOsHSDn-104" value="" style="endArrow=classic;html=1;rounded=0;entryX=0.5;entryY=1;entryDx=0;entryDy=0;exitX=0.5;exitY=0;exitDx=0;exitDy=0;fillColor=#ffe6cc;strokeColor=#d79b00;" parent="1" source="1AvOfJaNKrpmNgOsHSDn-99" target="1AvOfJaNKrpmNgOsHSDn-101" edge="1">
          <mxGeometry width="50" height="50" relative="1" as="geometry">
            <mxPoint x="70" y="1390" as="sourcePoint" />
            <mxPoint x="120" y="1340" as="targetPoint" />
          </mxGeometry>
        </mxCell>
        <mxCell id="1AvOfJaNKrpmNgOsHSDn-105" value="Только целые числа" style="rounded=1;whiteSpace=wrap;html=1;fillColor=#ffe6cc;strokeColor=#d79b00;" parent="1" vertex="1">
          <mxGeometry x="-60" y="980" width="120" height="60" as="geometry" />
        </mxCell>
        <mxCell id="1AvOfJaNKrpmNgOsHSDn-106" value="Нули перед однозначным числом обязательны" style="rounded=1;whiteSpace=wrap;html=1;fillColor=#ffe6cc;strokeColor=#d79b00;" parent="1" vertex="1">
          <mxGeometry x="-65" y="870" width="130" height="60" as="geometry" />
        </mxCell>
        <mxCell id="1AvOfJaNKrpmNgOsHSDn-108" value="" style="endArrow=classic;html=1;rounded=0;entryX=1;entryY=1;entryDx=0;entryDy=0;exitX=0.5;exitY=0;exitDx=0;exitDy=0;fillColor=#ffe6cc;strokeColor=#d79b00;" parent="1" source="1AvOfJaNKrpmNgOsHSDn-102" target="1AvOfJaNKrpmNgOsHSDn-105" edge="1">
          <mxGeometry width="50" height="50" relative="1" as="geometry">
            <mxPoint x="70" y="1170" as="sourcePoint" />
            <mxPoint x="120" y="1120" as="targetPoint" />
          </mxGeometry>
        </mxCell>
        <mxCell id="1AvOfJaNKrpmNgOsHSDn-109" value="" style="endArrow=classic;html=1;rounded=0;entryX=0.961;entryY=1.005;entryDx=0;entryDy=0;entryPerimeter=0;exitX=0.5;exitY=0;exitDx=0;exitDy=0;fillColor=#ffe6cc;strokeColor=#d79b00;" parent="1" source="1AvOfJaNKrpmNgOsHSDn-102" target="1AvOfJaNKrpmNgOsHSDn-106" edge="1">
          <mxGeometry width="50" height="50" relative="1" as="geometry">
            <mxPoint x="70" y="1170" as="sourcePoint" />
            <mxPoint x="120" y="1120" as="targetPoint" />
          </mxGeometry>
        </mxCell>
        <mxCell id="1AvOfJaNKrpmNgOsHSDn-110" value="" style="endArrow=classic;html=1;rounded=0;exitX=0.5;exitY=0;exitDx=0;exitDy=0;entryX=0;entryY=1;entryDx=0;entryDy=0;fillColor=#ffe6cc;strokeColor=#d79b00;" parent="1" source="1AvOfJaNKrpmNgOsHSDn-101" target="1AvOfJaNKrpmNgOsHSDn-105" edge="1">
          <mxGeometry width="50" height="50" relative="1" as="geometry">
            <mxPoint x="70" y="1170" as="sourcePoint" />
            <mxPoint x="120" y="1120" as="targetPoint" />
          </mxGeometry>
        </mxCell>
        <mxCell id="1AvOfJaNKrpmNgOsHSDn-111" value="" style="endArrow=classic;html=1;rounded=0;exitX=0.5;exitY=0;exitDx=0;exitDy=0;entryX=0;entryY=1;entryDx=0;entryDy=0;fillColor=#ffe6cc;strokeColor=#d79b00;" parent="1" source="1AvOfJaNKrpmNgOsHSDn-101" target="1AvOfJaNKrpmNgOsHSDn-106" edge="1">
          <mxGeometry width="50" height="50" relative="1" as="geometry">
            <mxPoint x="70" y="1170" as="sourcePoint" />
            <mxPoint x="120" y="1120" as="targetPoint" />
          </mxGeometry>
        </mxCell>
        <mxCell id="1AvOfJaNKrpmNgOsHSDn-112" value="Числа от 0 до 23 включительно" style="rounded=1;whiteSpace=wrap;html=1;fillColor=#ffe6cc;strokeColor=#d79b00;" parent="1" vertex="1">
          <mxGeometry x="-490" y="970" width="120" height="60" as="geometry" />
        </mxCell>
        <mxCell id="1AvOfJaNKrpmNgOsHSDn-113" value="" style="endArrow=classic;html=1;rounded=0;entryX=0.5;entryY=1;entryDx=0;entryDy=0;exitX=0.5;exitY=1;exitDx=0;exitDy=0;fillColor=#ffe6cc;strokeColor=#d79b00;" parent="1" source="1AvOfJaNKrpmNgOsHSDn-112" target="1AvOfJaNKrpmNgOsHSDn-112" edge="1">
          <mxGeometry width="50" height="50" relative="1" as="geometry">
            <mxPoint x="-270" y="1100" as="sourcePoint" />
            <mxPoint x="-260" y="1030" as="targetPoint" />
          </mxGeometry>
        </mxCell>
        <mxCell id="1AvOfJaNKrpmNgOsHSDn-114" value="Числа 0-23" style="rounded=1;whiteSpace=wrap;html=1;fillColor=#ffe6cc;strokeColor=#d79b00;" parent="1" vertex="1">
          <mxGeometry x="-490" y="860" width="120" height="60" as="geometry" />
        </mxCell>
        <mxCell id="1AvOfJaNKrpmNgOsHSDn-115" value="ОК" style="rounded=1;whiteSpace=wrap;html=1;fillColor=#ffe6cc;strokeColor=#d79b00;" parent="1" vertex="1">
          <mxGeometry x="-490" y="730" width="120" height="60" as="geometry" />
        </mxCell>
        <mxCell id="1AvOfJaNKrpmNgOsHSDn-116" value="" style="endArrow=classic;html=1;rounded=0;exitX=0.5;exitY=0;exitDx=0;exitDy=0;entryX=0.5;entryY=1;entryDx=0;entryDy=0;fillColor=#ffe6cc;strokeColor=#d79b00;" parent="1" source="1AvOfJaNKrpmNgOsHSDn-112" target="1AvOfJaNKrpmNgOsHSDn-114" edge="1">
          <mxGeometry width="50" height="50" relative="1" as="geometry">
            <mxPoint x="-350" y="950" as="sourcePoint" />
            <mxPoint x="-300" y="900" as="targetPoint" />
          </mxGeometry>
        </mxCell>
        <mxCell id="1AvOfJaNKrpmNgOsHSDn-119" value="Число &amp;lt; 0" style="rounded=1;whiteSpace=wrap;html=1;fillColor=#ffe6cc;strokeColor=#d79b00;" parent="1" vertex="1">
          <mxGeometry x="-690" y="870" width="120" height="60" as="geometry" />
        </mxCell>
        <mxCell id="1AvOfJaNKrpmNgOsHSDn-120" value="" style="endArrow=classic;html=1;rounded=0;exitX=0.5;exitY=0;exitDx=0;exitDy=0;entryX=0.5;entryY=1;entryDx=0;entryDy=0;fillColor=#ffe6cc;strokeColor=#d79b00;" parent="1" source="1AvOfJaNKrpmNgOsHSDn-101" target="1AvOfJaNKrpmNgOsHSDn-112" edge="1">
          <mxGeometry width="50" height="50" relative="1" as="geometry">
            <mxPoint x="-250" y="1120" as="sourcePoint" />
            <mxPoint x="-200" y="1070" as="targetPoint" />
          </mxGeometry>
        </mxCell>
        <mxCell id="1AvOfJaNKrpmNgOsHSDn-121" value="Число &amp;gt; 24" style="rounded=1;whiteSpace=wrap;html=1;fillColor=#ffe6cc;strokeColor=#d79b00;" parent="1" vertex="1">
          <mxGeometry x="-310" y="860" width="120" height="60" as="geometry" />
        </mxCell>
        <mxCell id="1AvOfJaNKrpmNgOsHSDn-123" value="&#xa;При некорректном вводе подсвечивается красным, ошибка «Вы ввели некорректное время»&#xa;&#xa;" style="rounded=1;whiteSpace=wrap;html=1;fillColor=#ffe6cc;strokeColor=#d79b00;" parent="1" vertex="1">
          <mxGeometry x="-535" y="560" width="210" height="90" as="geometry" />
        </mxCell>
        <mxCell id="1AvOfJaNKrpmNgOsHSDn-126" value="" style="endArrow=classic;html=1;rounded=0;exitX=1;exitY=0;exitDx=0;exitDy=0;entryX=0;entryY=1;entryDx=0;entryDy=0;fillColor=#ffe6cc;strokeColor=#d79b00;" parent="1" source="1AvOfJaNKrpmNgOsHSDn-112" target="1AvOfJaNKrpmNgOsHSDn-121" edge="1">
          <mxGeometry width="50" height="50" relative="1" as="geometry">
            <mxPoint x="-250" y="900" as="sourcePoint" />
            <mxPoint x="-200" y="850" as="targetPoint" />
          </mxGeometry>
        </mxCell>
        <mxCell id="1AvOfJaNKrpmNgOsHSDn-127" value="" style="endArrow=classic;html=1;rounded=0;entryX=1;entryY=1;entryDx=0;entryDy=0;exitX=0;exitY=0;exitDx=0;exitDy=0;fillColor=#ffe6cc;strokeColor=#d79b00;" parent="1" source="1AvOfJaNKrpmNgOsHSDn-112" target="1AvOfJaNKrpmNgOsHSDn-119" edge="1">
          <mxGeometry width="50" height="50" relative="1" as="geometry">
            <mxPoint x="-250" y="900" as="sourcePoint" />
            <mxPoint x="-200" y="850" as="targetPoint" />
          </mxGeometry>
        </mxCell>
        <mxCell id="1AvOfJaNKrpmNgOsHSDn-128" value="" style="endArrow=classic;html=1;rounded=0;exitX=0.5;exitY=0;exitDx=0;exitDy=0;entryX=0.982;entryY=0.925;entryDx=0;entryDy=0;entryPerimeter=0;fillColor=#ffe6cc;strokeColor=#d79b00;" parent="1" source="1AvOfJaNKrpmNgOsHSDn-121" target="1AvOfJaNKrpmNgOsHSDn-123" edge="1">
          <mxGeometry width="50" height="50" relative="1" as="geometry">
            <mxPoint x="-250" y="900" as="sourcePoint" />
            <mxPoint x="-200" y="850" as="targetPoint" />
          </mxGeometry>
        </mxCell>
        <mxCell id="1AvOfJaNKrpmNgOsHSDn-129" value="" style="endArrow=classic;html=1;rounded=0;exitX=0.5;exitY=0;exitDx=0;exitDy=0;entryX=0.012;entryY=0.941;entryDx=0;entryDy=0;entryPerimeter=0;fillColor=#ffe6cc;strokeColor=#d79b00;" parent="1" source="1AvOfJaNKrpmNgOsHSDn-119" target="1AvOfJaNKrpmNgOsHSDn-123" edge="1">
          <mxGeometry width="50" height="50" relative="1" as="geometry">
            <mxPoint x="-250" y="900" as="sourcePoint" />
            <mxPoint x="-200" y="850" as="targetPoint" />
          </mxGeometry>
        </mxCell>
        <mxCell id="1AvOfJaNKrpmNgOsHSDn-130" value="Числа от 0 до 60 включительно" style="rounded=1;whiteSpace=wrap;html=1;fillColor=#ffe6cc;strokeColor=#d79b00;" parent="1" vertex="1">
          <mxGeometry x="420" y="970" width="120" height="60" as="geometry" />
        </mxCell>
        <mxCell id="1AvOfJaNKrpmNgOsHSDn-131" value="" style="endArrow=classic;html=1;rounded=0;entryX=0.5;entryY=1;entryDx=0;entryDy=0;exitX=0.5;exitY=1;exitDx=0;exitDy=0;fillColor=#ffe6cc;strokeColor=#d79b00;" parent="1" source="1AvOfJaNKrpmNgOsHSDn-130" target="1AvOfJaNKrpmNgOsHSDn-130" edge="1">
          <mxGeometry width="50" height="50" relative="1" as="geometry">
            <mxPoint x="640" y="1100" as="sourcePoint" />
            <mxPoint x="650" y="1030" as="targetPoint" />
          </mxGeometry>
        </mxCell>
        <mxCell id="1AvOfJaNKrpmNgOsHSDn-132" value="Числа 0-60" style="rounded=1;whiteSpace=wrap;html=1;fillColor=#ffe6cc;strokeColor=#d79b00;" parent="1" vertex="1">
          <mxGeometry x="420" y="860" width="120" height="60" as="geometry" />
        </mxCell>
        <mxCell id="1AvOfJaNKrpmNgOsHSDn-133" value="ОК" style="rounded=1;whiteSpace=wrap;html=1;fillColor=#ffe6cc;strokeColor=#d79b00;" parent="1" vertex="1">
          <mxGeometry x="420" y="730" width="120" height="60" as="geometry" />
        </mxCell>
        <mxCell id="1AvOfJaNKrpmNgOsHSDn-134" value="" style="endArrow=classic;html=1;rounded=0;exitX=0.5;exitY=0;exitDx=0;exitDy=0;entryX=0.5;entryY=1;entryDx=0;entryDy=0;fillColor=#ffe6cc;strokeColor=#d79b00;" parent="1" source="1AvOfJaNKrpmNgOsHSDn-130" target="1AvOfJaNKrpmNgOsHSDn-132" edge="1">
          <mxGeometry width="50" height="50" relative="1" as="geometry">
            <mxPoint x="560" y="950" as="sourcePoint" />
            <mxPoint x="610" y="900" as="targetPoint" />
          </mxGeometry>
        </mxCell>
        <mxCell id="1AvOfJaNKrpmNgOsHSDn-136" value="Число &amp;lt; 0" style="rounded=1;whiteSpace=wrap;html=1;fillColor=#ffe6cc;strokeColor=#d79b00;" parent="1" vertex="1">
          <mxGeometry x="220" y="870" width="120" height="60" as="geometry" />
        </mxCell>
        <mxCell id="1AvOfJaNKrpmNgOsHSDn-137" value="Число &amp;gt; 60&lt;div&gt;&lt;br&gt;&lt;/div&gt;" style="rounded=1;whiteSpace=wrap;html=1;fillColor=#ffe6cc;strokeColor=#d79b00;" parent="1" vertex="1">
          <mxGeometry x="600" y="860" width="120" height="60" as="geometry" />
        </mxCell>
        <mxCell id="1AvOfJaNKrpmNgOsHSDn-138" value="&#xa;При некорректном вводе подсвечивается красным, ошибка «Вы ввели некорректное время»&#xa;&#xa;" style="rounded=1;whiteSpace=wrap;html=1;fillColor=#ffe6cc;strokeColor=#d79b00;" parent="1" vertex="1">
          <mxGeometry x="375" y="560" width="210" height="90" as="geometry" />
        </mxCell>
        <mxCell id="1AvOfJaNKrpmNgOsHSDn-139" value="" style="endArrow=classic;html=1;rounded=0;exitX=1;exitY=0;exitDx=0;exitDy=0;entryX=0;entryY=1;entryDx=0;entryDy=0;fillColor=#ffe6cc;strokeColor=#d79b00;" parent="1" source="1AvOfJaNKrpmNgOsHSDn-130" target="1AvOfJaNKrpmNgOsHSDn-137" edge="1">
          <mxGeometry width="50" height="50" relative="1" as="geometry">
            <mxPoint x="660" y="900" as="sourcePoint" />
            <mxPoint x="710" y="850" as="targetPoint" />
          </mxGeometry>
        </mxCell>
        <mxCell id="1AvOfJaNKrpmNgOsHSDn-140" value="" style="endArrow=classic;html=1;rounded=0;entryX=1;entryY=1;entryDx=0;entryDy=0;exitX=0;exitY=0;exitDx=0;exitDy=0;fillColor=#ffe6cc;strokeColor=#d79b00;" parent="1" source="1AvOfJaNKrpmNgOsHSDn-130" target="1AvOfJaNKrpmNgOsHSDn-136" edge="1">
          <mxGeometry width="50" height="50" relative="1" as="geometry">
            <mxPoint x="660" y="900" as="sourcePoint" />
            <mxPoint x="710" y="850" as="targetPoint" />
          </mxGeometry>
        </mxCell>
        <mxCell id="1AvOfJaNKrpmNgOsHSDn-141" value="" style="endArrow=classic;html=1;rounded=0;exitX=0.5;exitY=0;exitDx=0;exitDy=0;entryX=0.982;entryY=0.925;entryDx=0;entryDy=0;entryPerimeter=0;fillColor=#ffe6cc;strokeColor=#d79b00;" parent="1" source="1AvOfJaNKrpmNgOsHSDn-137" target="1AvOfJaNKrpmNgOsHSDn-138" edge="1">
          <mxGeometry width="50" height="50" relative="1" as="geometry">
            <mxPoint x="660" y="900" as="sourcePoint" />
            <mxPoint x="710" y="850" as="targetPoint" />
          </mxGeometry>
        </mxCell>
        <mxCell id="1AvOfJaNKrpmNgOsHSDn-142" value="" style="endArrow=classic;html=1;rounded=0;exitX=0.5;exitY=0;exitDx=0;exitDy=0;entryX=0.012;entryY=0.941;entryDx=0;entryDy=0;entryPerimeter=0;fillColor=#ffe6cc;strokeColor=#d79b00;" parent="1" source="1AvOfJaNKrpmNgOsHSDn-136" target="1AvOfJaNKrpmNgOsHSDn-138" edge="1">
          <mxGeometry width="50" height="50" relative="1" as="geometry">
            <mxPoint x="660" y="900" as="sourcePoint" />
            <mxPoint x="710" y="850" as="targetPoint" />
          </mxGeometry>
        </mxCell>
        <mxCell id="1AvOfJaNKrpmNgOsHSDn-143" value="" style="endArrow=classic;html=1;rounded=0;exitX=0.5;exitY=0;exitDx=0;exitDy=0;entryX=0.5;entryY=1;entryDx=0;entryDy=0;fillColor=#ffe6cc;strokeColor=#d79b00;" parent="1" source="1AvOfJaNKrpmNgOsHSDn-102" target="1AvOfJaNKrpmNgOsHSDn-130" edge="1">
          <mxGeometry width="50" height="50" relative="1" as="geometry">
            <mxPoint x="90" y="900" as="sourcePoint" />
            <mxPoint x="140" y="850" as="targetPoint" />
          </mxGeometry>
        </mxCell>
        <mxCell id="1AvOfJaNKrpmNgOsHSDn-144" value="Поле ввода адреса" style="rounded=1;whiteSpace=wrap;html=1;fillColor=#ffe6cc;strokeColor=#d79b00;" parent="1" vertex="1">
          <mxGeometry x="670" y="1610" width="120" height="60" as="geometry" />
        </mxCell>
        <mxCell id="1AvOfJaNKrpmNgOsHSDn-145" value="" style="endArrow=classic;html=1;rounded=0;exitX=1;exitY=0.5;exitDx=0;exitDy=0;entryX=0;entryY=0.5;entryDx=0;entryDy=0;fillColor=#ffe6cc;strokeColor=#d79b00;" parent="1" source="GoWqnwifKlF_Yr-xNYbi-4" target="1AvOfJaNKrpmNgOsHSDn-144" edge="1">
          <mxGeometry width="50" height="50" relative="1" as="geometry">
            <mxPoint x="330" y="1670" as="sourcePoint" />
            <mxPoint x="380" y="1620" as="targetPoint" />
          </mxGeometry>
        </mxCell>
        <mxCell id="1AvOfJaNKrpmNgOsHSDn-147" value="" style="endArrow=classic;html=1;rounded=0;exitX=0.5;exitY=0;exitDx=0;exitDy=0;entryX=0.508;entryY=1.047;entryDx=0;entryDy=0;entryPerimeter=0;fillColor=#ffe6cc;strokeColor=#d79b00;" parent="1" source="1AvOfJaNKrpmNgOsHSDn-144" target="1AvOfJaNKrpmNgOsHSDn-167" edge="1">
          <mxGeometry width="50" height="50" relative="1" as="geometry">
            <mxPoint x="450" y="1490" as="sourcePoint" />
            <mxPoint x="456.71999999999935" y="1545.8000000000002" as="targetPoint" />
          </mxGeometry>
        </mxCell>
        <mxCell id="1AvOfJaNKrpmNgOsHSDn-160" value="длина не более 50 символов" style="rounded=1;whiteSpace=wrap;html=1;fillColor=#ffe6cc;strokeColor=#d79b00;" parent="1" vertex="1">
          <mxGeometry x="580" y="1130" width="100" height="60" as="geometry" />
        </mxCell>
        <mxCell id="1AvOfJaNKrpmNgOsHSDn-162" value="Пробелы до и после адреса удаляются при снятии фокуса" style="rounded=1;whiteSpace=wrap;html=1;fillColor=#ffe6cc;strokeColor=#d79b00;" parent="1" vertex="1">
          <mxGeometry x="740" y="1130" width="140" height="60" as="geometry" />
        </mxCell>
        <mxCell id="1AvOfJaNKrpmNgOsHSDn-164" value="&lt;font style=&quot;font-size: 15px;&quot;&gt;Валидация по символам&lt;/font&gt;" style="swimlane;fontStyle=0;childLayout=stackLayout;horizontal=1;startSize=20;horizontalStack=0;resizeParent=1;resizeParentMax=0;resizeLast=0;collapsible=1;marginBottom=0;whiteSpace=wrap;html=1;fillColor=#f5f5f5;strokeColor=#666666;fontColor=#333333;" parent="1" vertex="1">
          <mxGeometry x="580" y="1280" width="300" height="110" as="geometry">
            <mxRectangle x="1100" y="1600" width="180" height="30" as="alternateBounds" />
          </mxGeometry>
        </mxCell>
        <mxCell id="1AvOfJaNKrpmNgOsHSDn-165" value="русские буквы&amp;nbsp; &amp;nbsp; &amp;nbsp; &amp;nbsp; &amp;nbsp; &amp;nbsp; &amp;nbsp; &amp;nbsp; &amp;nbsp; &amp;nbsp; тире" style="text;align=left;verticalAlign=middle;spacingLeft=4;spacingRight=4;overflow=hidden;points=[[0,0.5],[1,0.5]];portConstraint=eastwest;rotatable=0;whiteSpace=wrap;html=1;fillColor=#f5f5f5;fontColor=#333333;strokeColor=#666666;" parent="1AvOfJaNKrpmNgOsHSDn-164" vertex="1">
          <mxGeometry y="20" width="300" height="30" as="geometry" />
        </mxCell>
        <mxCell id="1AvOfJaNKrpmNgOsHSDn-166" value="цифры&amp;nbsp; &amp;nbsp; &amp;nbsp; &amp;nbsp; &amp;nbsp; &amp;nbsp; &amp;nbsp; &amp;nbsp; &amp;nbsp; &amp;nbsp; &amp;nbsp; &amp;nbsp; &amp;nbsp; &amp;nbsp; &amp;nbsp; &amp;nbsp; точка" style="text;strokeColor=#666666;fillColor=#f5f5f5;align=left;verticalAlign=middle;spacingLeft=4;spacingRight=4;overflow=hidden;points=[[0,0.5],[1,0.5]];portConstraint=eastwest;rotatable=0;whiteSpace=wrap;html=1;fontColor=#333333;" parent="1AvOfJaNKrpmNgOsHSDn-164" vertex="1">
          <mxGeometry y="50" width="300" height="30" as="geometry" />
        </mxCell>
        <mxCell id="1AvOfJaNKrpmNgOsHSDn-167" value="пробел&amp;nbsp; &amp;nbsp; &amp;nbsp; &amp;nbsp; &amp;nbsp; &amp;nbsp; &amp;nbsp; &amp;nbsp; &amp;nbsp; &amp;nbsp; &amp;nbsp; &amp;nbsp; &amp;nbsp; &amp;nbsp; &amp;nbsp; &amp;nbsp; запятая" style="text;strokeColor=#666666;fillColor=#f5f5f5;align=left;verticalAlign=middle;spacingLeft=4;spacingRight=4;overflow=hidden;points=[[0,0.5],[1,0.5]];portConstraint=eastwest;rotatable=0;whiteSpace=wrap;html=1;fontColor=#333333;" parent="1AvOfJaNKrpmNgOsHSDn-164" vertex="1">
          <mxGeometry y="80" width="300" height="30" as="geometry" />
        </mxCell>
        <mxCell id="1AvOfJaNKrpmNgOsHSDn-168" value="" style="endArrow=classic;html=1;rounded=0;exitX=0.5;exitY=0;exitDx=0;exitDy=0;entryX=0.5;entryY=1;entryDx=0;entryDy=0;fillColor=#ffe6cc;strokeColor=#d79b00;" parent="1" source="1AvOfJaNKrpmNgOsHSDn-114" target="1AvOfJaNKrpmNgOsHSDn-115" edge="1">
          <mxGeometry relative="1" as="geometry">
            <mxPoint x="-20" y="790" as="sourcePoint" />
            <mxPoint x="80" y="790" as="targetPoint" />
          </mxGeometry>
        </mxCell>
        <mxCell id="1AvOfJaNKrpmNgOsHSDn-169" value="" style="shape=message;html=1;outlineConnect=0;fillColor=#ffe6cc;strokeColor=#d79b00;" parent="1AvOfJaNKrpmNgOsHSDn-168" vertex="1">
          <mxGeometry width="20" height="14" relative="1" as="geometry">
            <mxPoint x="-10" y="-7" as="offset" />
          </mxGeometry>
        </mxCell>
        <mxCell id="1AvOfJaNKrpmNgOsHSDn-170" value="" style="endArrow=classic;html=1;rounded=0;exitX=0.5;exitY=0;exitDx=0;exitDy=0;entryX=0.5;entryY=1;entryDx=0;entryDy=0;fillColor=#ffe6cc;strokeColor=#d79b00;" parent="1" source="1AvOfJaNKrpmNgOsHSDn-132" target="1AvOfJaNKrpmNgOsHSDn-133" edge="1">
          <mxGeometry relative="1" as="geometry">
            <mxPoint x="-20" y="790" as="sourcePoint" />
            <mxPoint x="80" y="790" as="targetPoint" />
          </mxGeometry>
        </mxCell>
        <mxCell id="1AvOfJaNKrpmNgOsHSDn-171" value="" style="shape=message;html=1;outlineConnect=0;fillColor=#ffe6cc;strokeColor=#d79b00;" parent="1AvOfJaNKrpmNgOsHSDn-170" vertex="1">
          <mxGeometry width="20" height="14" relative="1" as="geometry">
            <mxPoint x="-10" y="-7" as="offset" />
          </mxGeometry>
        </mxCell>
        <mxCell id="1AvOfJaNKrpmNgOsHSDn-174" value="" style="endArrow=classic;html=1;rounded=0;entryX=0.5;entryY=1;entryDx=0;entryDy=0;exitX=0.5;exitY=0;exitDx=0;exitDy=0;fillColor=#ffe6cc;strokeColor=#d79b00;" parent="1" source="1AvOfJaNKrpmNgOsHSDn-164" target="1AvOfJaNKrpmNgOsHSDn-160" edge="1">
          <mxGeometry width="50" height="50" relative="1" as="geometry">
            <mxPoint x="650" y="1360" as="sourcePoint" />
            <mxPoint x="700" y="1310" as="targetPoint" />
          </mxGeometry>
        </mxCell>
        <mxCell id="1AvOfJaNKrpmNgOsHSDn-175" value="" style="endArrow=classic;html=1;rounded=0;entryX=0.5;entryY=1;entryDx=0;entryDy=0;exitX=0.5;exitY=0;exitDx=0;exitDy=0;fillColor=#ffe6cc;strokeColor=#d79b00;" parent="1" source="1AvOfJaNKrpmNgOsHSDn-164" target="1AvOfJaNKrpmNgOsHSDn-162" edge="1">
          <mxGeometry width="50" height="50" relative="1" as="geometry">
            <mxPoint x="650" y="1360" as="sourcePoint" />
            <mxPoint x="700" y="1310" as="targetPoint" />
          </mxGeometry>
        </mxCell>
        <mxCell id="1AvOfJaNKrpmNgOsHSDn-178" value="валидация" style="rounded=1;whiteSpace=wrap;html=1;fillColor=#ffe6cc;strokeColor=#d79b00;" parent="1" vertex="1">
          <mxGeometry x="1190" y="1610" width="120" height="60" as="geometry" />
        </mxCell>
        <mxCell id="1AvOfJaNKrpmNgOsHSDn-180" value="поле &quot;откуда&quot;" style="rounded=1;whiteSpace=wrap;html=1;fillColor=#ffe6cc;strokeColor=#d79b00;" parent="1" vertex="1">
          <mxGeometry x="950" y="1550" width="120" height="60" as="geometry" />
        </mxCell>
        <mxCell id="1AvOfJaNKrpmNgOsHSDn-181" value="поле &quot;куда&quot;" style="rounded=1;whiteSpace=wrap;html=1;fillColor=#ffe6cc;strokeColor=#d79b00;" parent="1" vertex="1">
          <mxGeometry x="950" y="1670" width="120" height="60" as="geometry" />
        </mxCell>
        <mxCell id="1AvOfJaNKrpmNgOsHSDn-182" value="" style="endArrow=classic;html=1;rounded=0;exitX=1;exitY=0.5;exitDx=0;exitDy=0;entryX=0;entryY=0.5;entryDx=0;entryDy=0;fillColor=#ffe6cc;strokeColor=#d79b00;" parent="1" source="1AvOfJaNKrpmNgOsHSDn-144" target="1AvOfJaNKrpmNgOsHSDn-180" edge="1">
          <mxGeometry width="50" height="50" relative="1" as="geometry">
            <mxPoint x="810" y="1740" as="sourcePoint" />
            <mxPoint x="860" y="1690" as="targetPoint" />
          </mxGeometry>
        </mxCell>
        <mxCell id="1AvOfJaNKrpmNgOsHSDn-183" value="" style="endArrow=classic;html=1;rounded=0;exitX=1;exitY=0.5;exitDx=0;exitDy=0;entryX=0;entryY=0.5;entryDx=0;entryDy=0;fillColor=#ffe6cc;strokeColor=#d79b00;" parent="1" source="1AvOfJaNKrpmNgOsHSDn-144" target="1AvOfJaNKrpmNgOsHSDn-181" edge="1">
          <mxGeometry width="50" height="50" relative="1" as="geometry">
            <mxPoint x="810" y="1740" as="sourcePoint" />
            <mxPoint x="860" y="1690" as="targetPoint" />
          </mxGeometry>
        </mxCell>
        <mxCell id="1AvOfJaNKrpmNgOsHSDn-184" value="" style="endArrow=classic;html=1;rounded=0;exitX=1;exitY=0.5;exitDx=0;exitDy=0;entryX=0;entryY=0.5;entryDx=0;entryDy=0;fillColor=#ffe6cc;strokeColor=#d79b00;" parent="1" source="1AvOfJaNKrpmNgOsHSDn-181" target="1AvOfJaNKrpmNgOsHSDn-178" edge="1">
          <mxGeometry width="50" height="50" relative="1" as="geometry">
            <mxPoint x="910" y="1630" as="sourcePoint" />
            <mxPoint x="960" y="1580" as="targetPoint" />
          </mxGeometry>
        </mxCell>
        <mxCell id="1AvOfJaNKrpmNgOsHSDn-185" value="" style="endArrow=classic;html=1;rounded=0;exitX=1;exitY=0.5;exitDx=0;exitDy=0;entryX=0;entryY=0.5;entryDx=0;entryDy=0;fillColor=#ffe6cc;strokeColor=#d79b00;" parent="1" source="1AvOfJaNKrpmNgOsHSDn-180" target="1AvOfJaNKrpmNgOsHSDn-178" edge="1">
          <mxGeometry width="50" height="50" relative="1" as="geometry">
            <mxPoint x="910" y="1630" as="sourcePoint" />
            <mxPoint x="960" y="1580" as="targetPoint" />
          </mxGeometry>
        </mxCell>
        <mxCell id="1AvOfJaNKrpmNgOsHSDn-186" value="поля заполнены корректно" style="rounded=1;whiteSpace=wrap;html=1;fillColor=#ffe6cc;strokeColor=#d79b00;" parent="1" vertex="1">
          <mxGeometry x="1410" y="1490" width="120" height="60" as="geometry" />
        </mxCell>
        <mxCell id="1AvOfJaNKrpmNgOsHSDn-187" value="" style="endArrow=classic;html=1;rounded=0;exitX=1;exitY=0;exitDx=0;exitDy=0;entryX=0;entryY=1;entryDx=0;entryDy=0;fillColor=#ffe6cc;strokeColor=#d79b00;" parent="1" source="1AvOfJaNKrpmNgOsHSDn-178" target="1AvOfJaNKrpmNgOsHSDn-186" edge="1">
          <mxGeometry width="50" height="50" relative="1" as="geometry">
            <mxPoint x="1260" y="1630" as="sourcePoint" />
            <mxPoint x="1310" y="1580" as="targetPoint" />
          </mxGeometry>
        </mxCell>
        <mxCell id="1AvOfJaNKrpmNgOsHSDn-188" value="на карте отображаются точки А и В" style="rounded=1;whiteSpace=wrap;html=1;fillColor=#ffe6cc;strokeColor=#d79b00;" parent="1" vertex="1">
          <mxGeometry x="1630" y="1490" width="120" height="60" as="geometry" />
        </mxCell>
        <mxCell id="1AvOfJaNKrpmNgOsHSDn-189" value="" style="endArrow=classic;html=1;rounded=0;exitX=1;exitY=0.5;exitDx=0;exitDy=0;entryX=0;entryY=0.5;entryDx=0;entryDy=0;fillColor=#ffe6cc;strokeColor=#d79b00;" parent="1" source="1AvOfJaNKrpmNgOsHSDn-186" target="1AvOfJaNKrpmNgOsHSDn-188" edge="1">
          <mxGeometry relative="1" as="geometry">
            <mxPoint x="1480" y="1580" as="sourcePoint" />
            <mxPoint x="1580" y="1580" as="targetPoint" />
          </mxGeometry>
        </mxCell>
        <mxCell id="1AvOfJaNKrpmNgOsHSDn-190" value="" style="shape=message;html=1;outlineConnect=0;fillColor=#ffe6cc;strokeColor=#d79b00;" parent="1AvOfJaNKrpmNgOsHSDn-189" vertex="1">
          <mxGeometry width="20" height="14" relative="1" as="geometry">
            <mxPoint x="-10" y="-7" as="offset" />
          </mxGeometry>
        </mxCell>
        <mxCell id="1AvOfJaNKrpmNgOsHSDn-191" value="поля заполнены НЕкорректно" style="rounded=1;whiteSpace=wrap;html=1;fillColor=#ffe6cc;strokeColor=#d79b00;" parent="1" vertex="1">
          <mxGeometry x="1410" y="1730" width="120" height="60" as="geometry" />
        </mxCell>
        <mxCell id="1AvOfJaNKrpmNgOsHSDn-192" value="" style="endArrow=classic;html=1;rounded=0;exitX=1;exitY=1;exitDx=0;exitDy=0;entryX=0;entryY=0;entryDx=0;entryDy=0;fillColor=#ffe6cc;strokeColor=#d79b00;" parent="1" source="1AvOfJaNKrpmNgOsHSDn-178" target="1AvOfJaNKrpmNgOsHSDn-191" edge="1">
          <mxGeometry width="50" height="50" relative="1" as="geometry">
            <mxPoint x="1510" y="1750" as="sourcePoint" />
            <mxPoint x="1560" y="1700" as="targetPoint" />
          </mxGeometry>
        </mxCell>
        <mxCell id="1AvOfJaNKrpmNgOsHSDn-193" value="поля подсвечиваются красным" style="rounded=1;whiteSpace=wrap;html=1;fillColor=#ffe6cc;strokeColor=#d79b00;" parent="1" vertex="1">
          <mxGeometry x="1630" y="1730" width="120" height="60" as="geometry" />
        </mxCell>
        <mxCell id="1AvOfJaNKrpmNgOsHSDn-194" value="" style="endArrow=classic;html=1;rounded=0;exitX=1;exitY=0.5;exitDx=0;exitDy=0;entryX=0;entryY=0.5;entryDx=0;entryDy=0;fillColor=#ffe6cc;strokeColor=#d79b00;" parent="1" source="1AvOfJaNKrpmNgOsHSDn-191" target="1AvOfJaNKrpmNgOsHSDn-193" edge="1">
          <mxGeometry width="50" height="50" relative="1" as="geometry">
            <mxPoint x="1510" y="1750" as="sourcePoint" />
            <mxPoint x="1560" y="1700" as="targetPoint" />
          </mxGeometry>
        </mxCell>
        <mxCell id="1AvOfJaNKrpmNgOsHSDn-195" value="ошибка «Вы ввели некорректный адрес»" style="rounded=1;whiteSpace=wrap;html=1;fillColor=#ffe6cc;strokeColor=#d79b00;" parent="1" vertex="1">
          <mxGeometry x="1840" y="1730" width="120" height="60" as="geometry" />
        </mxCell>
        <mxCell id="1AvOfJaNKrpmNgOsHSDn-196" value="" style="endArrow=classic;html=1;rounded=0;entryX=0;entryY=0.5;entryDx=0;entryDy=0;exitX=1;exitY=0.5;exitDx=0;exitDy=0;fillColor=#ffe6cc;strokeColor=#d79b00;" parent="1" source="1AvOfJaNKrpmNgOsHSDn-193" target="1AvOfJaNKrpmNgOsHSDn-195" edge="1">
          <mxGeometry width="50" height="50" relative="1" as="geometry">
            <mxPoint x="1510" y="1820" as="sourcePoint" />
            <mxPoint x="1560" y="1770" as="targetPoint" />
          </mxGeometry>
        </mxCell>
        <mxCell id="1AvOfJaNKrpmNgOsHSDn-197" value="на карте точки А и В не отображаются" style="rounded=1;whiteSpace=wrap;html=1;fillColor=#ffe6cc;strokeColor=#d79b00;" parent="1" vertex="1">
          <mxGeometry x="2030" y="1730" width="120" height="60" as="geometry" />
        </mxCell>
        <mxCell id="1AvOfJaNKrpmNgOsHSDn-198" value="" style="endArrow=classic;html=1;rounded=0;exitX=1;exitY=0.5;exitDx=0;exitDy=0;entryX=0;entryY=0.5;entryDx=0;entryDy=0;fillColor=#ffe6cc;strokeColor=#d79b00;" parent="1" source="1AvOfJaNKrpmNgOsHSDn-195" target="1AvOfJaNKrpmNgOsHSDn-197" edge="1">
          <mxGeometry width="50" height="50" relative="1" as="geometry">
            <mxPoint x="1510" y="1750" as="sourcePoint" />
            <mxPoint x="1560" y="1700" as="targetPoint" />
          </mxGeometry>
        </mxCell>
        <mxCell id="1AvOfJaNKrpmNgOsHSDn-199" value="режим &quot;быстрый&quot;" style="rounded=1;whiteSpace=wrap;html=1;fillColor=#ffe6cc;strokeColor=#d79b00;" parent="1" vertex="1">
          <mxGeometry x="125" y="1940" width="120" height="60" as="geometry" />
        </mxCell>
        <mxCell id="1AvOfJaNKrpmNgOsHSDn-200" value="" style="endArrow=classic;html=1;rounded=0;entryX=1;entryY=0.5;entryDx=0;entryDy=0;fillColor=#dae8fc;strokeColor=#6c8ebf;" parent="1" target="1AvOfJaNKrpmNgOsHSDn-95" edge="1">
          <mxGeometry width="50" height="50" relative="1" as="geometry">
            <mxPoint x="-1240" y="2370" as="sourcePoint" />
            <mxPoint x="-1230" y="2170" as="targetPoint" />
          </mxGeometry>
        </mxCell>
        <mxCell id="1AvOfJaNKrpmNgOsHSDn-201" value="" style="endArrow=classic;html=1;rounded=0;exitX=0;exitY=0.5;exitDx=0;exitDy=0;entryX=1;entryY=0.5;entryDx=0;entryDy=0;fillColor=#dae8fc;strokeColor=#6c8ebf;" parent="1" source="1AvOfJaNKrpmNgOsHSDn-95" target="1AvOfJaNKrpmNgOsHSDn-86" edge="1">
          <mxGeometry width="50" height="50" relative="1" as="geometry">
            <mxPoint x="-1280" y="2220" as="sourcePoint" />
            <mxPoint x="-1230" y="2170" as="targetPoint" />
          </mxGeometry>
        </mxCell>
        <mxCell id="1AvOfJaNKrpmNgOsHSDn-202" value="режим &quot;оптимальный&quot;" style="rounded=1;whiteSpace=wrap;html=1;fillColor=#ffe6cc;strokeColor=#d79b00;" parent="1" vertex="1">
          <mxGeometry x="125" y="2060" width="120" height="60" as="geometry" />
        </mxCell>
        <mxCell id="1AvOfJaNKrpmNgOsHSDn-203" value="режим &quot;свой&quot;" style="rounded=1;whiteSpace=wrap;html=1;fillColor=#ffe6cc;strokeColor=#d79b00;" parent="1" vertex="1">
          <mxGeometry x="125" y="2190" width="120" height="60" as="geometry" />
        </mxCell>
        <mxCell id="1AvOfJaNKrpmNgOsHSDn-205" value="панель видов транспорта неактивна" style="rounded=1;whiteSpace=wrap;html=1;fillColor=#ffe6cc;strokeColor=#d79b00;" parent="1" vertex="1">
          <mxGeometry x="330" y="2000" width="120" height="60" as="geometry" />
        </mxCell>
        <mxCell id="1AvOfJaNKrpmNgOsHSDn-206" value="" style="endArrow=classic;html=1;rounded=0;exitX=1;exitY=0.5;exitDx=0;exitDy=0;entryX=0;entryY=0.5;entryDx=0;entryDy=0;fillColor=#ffe6cc;strokeColor=#d79b00;" parent="1" source="1AvOfJaNKrpmNgOsHSDn-199" target="1AvOfJaNKrpmNgOsHSDn-205" edge="1">
          <mxGeometry width="50" height="50" relative="1" as="geometry">
            <mxPoint x="290" y="2140" as="sourcePoint" />
            <mxPoint x="340" y="2090" as="targetPoint" />
          </mxGeometry>
        </mxCell>
        <mxCell id="1AvOfJaNKrpmNgOsHSDn-207" value="" style="endArrow=classic;html=1;rounded=0;exitX=1;exitY=0.5;exitDx=0;exitDy=0;fillColor=#ffe6cc;strokeColor=#d79b00;" parent="1" source="1AvOfJaNKrpmNgOsHSDn-202" edge="1">
          <mxGeometry width="50" height="50" relative="1" as="geometry">
            <mxPoint x="290" y="2140" as="sourcePoint" />
            <mxPoint x="330" y="2030" as="targetPoint" />
          </mxGeometry>
        </mxCell>
        <mxCell id="1AvOfJaNKrpmNgOsHSDn-208" value="система автоматически назначит вид транспорта" style="rounded=1;whiteSpace=wrap;html=1;fillColor=#ffe6cc;strokeColor=#d79b00;" parent="1" vertex="1">
          <mxGeometry x="530" y="2000" width="120" height="60" as="geometry" />
        </mxCell>
        <mxCell id="1AvOfJaNKrpmNgOsHSDn-209" value="" style="endArrow=classic;html=1;rounded=0;exitX=1;exitY=0.5;exitDx=0;exitDy=0;entryX=0;entryY=0.5;entryDx=0;entryDy=0;fillColor=#ffe6cc;strokeColor=#d79b00;" parent="1" source="1AvOfJaNKrpmNgOsHSDn-205" target="1AvOfJaNKrpmNgOsHSDn-208" edge="1">
          <mxGeometry width="50" height="50" relative="1" as="geometry">
            <mxPoint x="290" y="2140" as="sourcePoint" />
            <mxPoint x="340" y="2090" as="targetPoint" />
          </mxGeometry>
        </mxCell>
        <mxCell id="1AvOfJaNKrpmNgOsHSDn-210" value="построится маршрут" style="rounded=1;whiteSpace=wrap;html=1;fillColor=#ffe6cc;strokeColor=#d79b00;" parent="1" vertex="1">
          <mxGeometry x="710" y="2000" width="120" height="60" as="geometry" />
        </mxCell>
        <mxCell id="1AvOfJaNKrpmNgOsHSDn-211" value="" style="endArrow=classic;html=1;rounded=0;exitX=1;exitY=0.5;exitDx=0;exitDy=0;entryX=0;entryY=0.5;entryDx=0;entryDy=0;fillColor=#ffe6cc;strokeColor=#d79b00;" parent="1" source="1AvOfJaNKrpmNgOsHSDn-208" target="1AvOfJaNKrpmNgOsHSDn-210" edge="1">
          <mxGeometry width="50" height="50" relative="1" as="geometry">
            <mxPoint x="680" y="2140" as="sourcePoint" />
            <mxPoint x="730" y="2090" as="targetPoint" />
          </mxGeometry>
        </mxCell>
        <mxCell id="1AvOfJaNKrpmNgOsHSDn-212" value="отобразится время и стоимость поездки" style="rounded=1;whiteSpace=wrap;html=1;fillColor=#ffe6cc;strokeColor=#d79b00;" parent="1" vertex="1">
          <mxGeometry x="900" y="2000" width="130" height="60" as="geometry" />
        </mxCell>
        <mxCell id="1AvOfJaNKrpmNgOsHSDn-213" value="" style="endArrow=classic;html=1;rounded=0;exitX=1;exitY=0.5;exitDx=0;exitDy=0;entryX=0;entryY=0.5;entryDx=0;entryDy=0;fillColor=#ffe6cc;strokeColor=#d79b00;" parent="1" source="1AvOfJaNKrpmNgOsHSDn-210" target="1AvOfJaNKrpmNgOsHSDn-212" edge="1">
          <mxGeometry width="50" height="50" relative="1" as="geometry">
            <mxPoint x="680" y="2140" as="sourcePoint" />
            <mxPoint x="730" y="2090" as="targetPoint" />
          </mxGeometry>
        </mxCell>
        <mxCell id="1AvOfJaNKrpmNgOsHSDn-214" value="Состояние каждого переключателя — активен, выбран" style="rounded=1;whiteSpace=wrap;html=1;fillColor=#ffe6cc;strokeColor=#d79b00;" parent="1" vertex="1">
          <mxGeometry x="-110" y="2060" width="130" height="60" as="geometry" />
        </mxCell>
        <mxCell id="1AvOfJaNKrpmNgOsHSDn-215" value="" style="endArrow=classic;html=1;rounded=0;exitX=1;exitY=0.5;exitDx=0;exitDy=0;fillColor=#ffe6cc;strokeColor=#d79b00;" parent="1" source="GoWqnwifKlF_Yr-xNYbi-5" edge="1">
          <mxGeometry width="50" height="50" relative="1" as="geometry">
            <mxPoint x="170" y="2150" as="sourcePoint" />
            <mxPoint x="-110" y="2090" as="targetPoint" />
          </mxGeometry>
        </mxCell>
        <mxCell id="1AvOfJaNKrpmNgOsHSDn-216" value="" style="endArrow=classic;html=1;rounded=0;exitX=1;exitY=0.5;exitDx=0;exitDy=0;entryX=0;entryY=0.5;entryDx=0;entryDy=0;fillColor=#ffe6cc;strokeColor=#d79b00;" parent="1" source="1AvOfJaNKrpmNgOsHSDn-214" target="1AvOfJaNKrpmNgOsHSDn-199" edge="1">
          <mxGeometry width="50" height="50" relative="1" as="geometry">
            <mxPoint x="170" y="2150" as="sourcePoint" />
            <mxPoint x="220" y="2100" as="targetPoint" />
          </mxGeometry>
        </mxCell>
        <mxCell id="1AvOfJaNKrpmNgOsHSDn-217" value="" style="endArrow=classic;html=1;rounded=0;exitX=1;exitY=0.5;exitDx=0;exitDy=0;entryX=0;entryY=0.5;entryDx=0;entryDy=0;fillColor=#ffe6cc;strokeColor=#d79b00;" parent="1" source="1AvOfJaNKrpmNgOsHSDn-214" target="1AvOfJaNKrpmNgOsHSDn-202" edge="1">
          <mxGeometry width="50" height="50" relative="1" as="geometry">
            <mxPoint x="170" y="2150" as="sourcePoint" />
            <mxPoint x="220" y="2100" as="targetPoint" />
          </mxGeometry>
        </mxCell>
        <mxCell id="1AvOfJaNKrpmNgOsHSDn-218" value="" style="endArrow=classic;html=1;rounded=0;exitX=1;exitY=0.5;exitDx=0;exitDy=0;entryX=0;entryY=0.5;entryDx=0;entryDy=0;fillColor=#ffe6cc;strokeColor=#d79b00;" parent="1" source="1AvOfJaNKrpmNgOsHSDn-214" target="1AvOfJaNKrpmNgOsHSDn-203" edge="1">
          <mxGeometry width="50" height="50" relative="1" as="geometry">
            <mxPoint x="170" y="2150" as="sourcePoint" />
            <mxPoint x="220" y="2100" as="targetPoint" />
          </mxGeometry>
        </mxCell>
        <mxCell id="1AvOfJaNKrpmNgOsHSDn-219" value="панель видов транспорта активна" style="rounded=1;whiteSpace=wrap;html=1;fillColor=#ffe6cc;strokeColor=#d79b00;" parent="1" vertex="1">
          <mxGeometry x="330" y="2190" width="120" height="60" as="geometry" />
        </mxCell>
        <mxCell id="1AvOfJaNKrpmNgOsHSDn-220" value="" style="endArrow=classic;html=1;rounded=0;entryX=0;entryY=0.5;entryDx=0;entryDy=0;exitX=1;exitY=0.5;exitDx=0;exitDy=0;fillColor=#ffe6cc;strokeColor=#d79b00;" parent="1" source="1AvOfJaNKrpmNgOsHSDn-203" target="1AvOfJaNKrpmNgOsHSDn-219" edge="1">
          <mxGeometry width="50" height="50" relative="1" as="geometry">
            <mxPoint x="170" y="2230" as="sourcePoint" />
            <mxPoint x="220" y="2180" as="targetPoint" />
          </mxGeometry>
        </mxCell>
        <mxCell id="1AvOfJaNKrpmNgOsHSDn-221" value="под каждый вид транспорта строится маршрут" style="rounded=1;whiteSpace=wrap;html=1;fillColor=#ffe6cc;strokeColor=#d79b00;" parent="1" vertex="1">
          <mxGeometry x="525" y="2190" width="130" height="60" as="geometry" />
        </mxCell>
        <mxCell id="1AvOfJaNKrpmNgOsHSDn-222" value="" style="endArrow=classic;html=1;rounded=0;exitX=1;exitY=0.5;exitDx=0;exitDy=0;entryX=0;entryY=0.5;entryDx=0;entryDy=0;fillColor=#ffe6cc;strokeColor=#d79b00;" parent="1" source="1AvOfJaNKrpmNgOsHSDn-219" target="1AvOfJaNKrpmNgOsHSDn-221" edge="1">
          <mxGeometry width="50" height="50" relative="1" as="geometry">
            <mxPoint x="500" y="2230" as="sourcePoint" />
            <mxPoint x="550" y="2180" as="targetPoint" />
          </mxGeometry>
        </mxCell>
        <mxCell id="1AvOfJaNKrpmNgOsHSDn-223" value="отобразится время и стоимость поездки" style="rounded=1;whiteSpace=wrap;html=1;fillColor=#ffe6cc;strokeColor=#d79b00;" parent="1" vertex="1">
          <mxGeometry x="705" y="2190" width="130" height="60" as="geometry" />
        </mxCell>
        <mxCell id="1AvOfJaNKrpmNgOsHSDn-226" value="" style="endArrow=classic;html=1;rounded=0;exitX=1;exitY=0.5;exitDx=0;exitDy=0;entryX=0;entryY=0.5;entryDx=0;entryDy=0;fillColor=#ffe6cc;strokeColor=#d79b00;" parent="1" source="1AvOfJaNKrpmNgOsHSDn-221" target="1AvOfJaNKrpmNgOsHSDn-223" edge="1">
          <mxGeometry width="50" height="50" relative="1" as="geometry">
            <mxPoint x="500" y="2230" as="sourcePoint" />
            <mxPoint x="550" y="2180" as="targetPoint" />
          </mxGeometry>
        </mxCell>
        <mxCell id="1AvOfJaNKrpmNgOsHSDn-227" value="Если сменить вид транспорта или поменять значение в любом поле, маршрут перестроится; время и стоимость поездки пересчитается" style="rounded=1;whiteSpace=wrap;html=1;fillColor=#ffe6cc;strokeColor=#d79b00;" parent="1" vertex="1">
          <mxGeometry x="890" y="2175" width="190" height="90" as="geometry" />
        </mxCell>
        <mxCell id="1AvOfJaNKrpmNgOsHSDn-228" value="" style="endArrow=classic;html=1;rounded=0;entryX=0;entryY=0.5;entryDx=0;entryDy=0;exitX=1;exitY=0.5;exitDx=0;exitDy=0;fillColor=#ffe6cc;strokeColor=#d79b00;" parent="1" source="1AvOfJaNKrpmNgOsHSDn-223" target="1AvOfJaNKrpmNgOsHSDn-227" edge="1">
          <mxGeometry width="50" height="50" relative="1" as="geometry">
            <mxPoint x="740" y="2230" as="sourcePoint" />
            <mxPoint x="790" y="2180" as="targetPoint" />
          </mxGeometry>
        </mxCell>
        <mxCell id="1AvOfJaNKrpmNgOsHSDn-229" value="Пешком" style="rounded=1;whiteSpace=wrap;html=1;fillColor=#ffe6cc;strokeColor=#d79b00;" parent="1" vertex="1">
          <mxGeometry x="47.5" y="2380" width="80" height="30" as="geometry" />
        </mxCell>
        <mxCell id="1AvOfJaNKrpmNgOsHSDn-230" value="Самокат" style="rounded=1;whiteSpace=wrap;html=1;fillColor=#ffe6cc;strokeColor=#d79b00;" parent="1" vertex="1">
          <mxGeometry x="157.5" y="2380" width="80" height="30" as="geometry" />
        </mxCell>
        <mxCell id="1AvOfJaNKrpmNgOsHSDn-231" value="Велосипед" style="rounded=1;whiteSpace=wrap;html=1;fillColor=#ffe6cc;strokeColor=#d79b00;" parent="1" vertex="1">
          <mxGeometry x="267.5" y="2380" width="90" height="30" as="geometry" />
        </mxCell>
        <mxCell id="1AvOfJaNKrpmNgOsHSDn-232" value="Каршеринг" style="rounded=1;whiteSpace=wrap;html=1;fillColor=#ffe6cc;strokeColor=#d79b00;" parent="1" vertex="1">
          <mxGeometry x="387.5" y="2380" width="90" height="30" as="geometry" />
        </mxCell>
        <mxCell id="1AvOfJaNKrpmNgOsHSDn-233" value="Такси" style="rounded=1;whiteSpace=wrap;html=1;fillColor=#ffe6cc;strokeColor=#d79b00;" parent="1" vertex="1">
          <mxGeometry x="507.5" y="2380" width="80" height="30" as="geometry" />
        </mxCell>
        <mxCell id="1AvOfJaNKrpmNgOsHSDn-234" value="Собственный автомобиль" style="rounded=1;whiteSpace=wrap;html=1;fillColor=#ffe6cc;strokeColor=#d79b00;" parent="1" vertex="1">
          <mxGeometry x="622.5" y="2380" width="110" height="35" as="geometry" />
        </mxCell>
        <mxCell id="1AvOfJaNKrpmNgOsHSDn-235" value="" style="endArrow=none;html=1;rounded=0;fillColor=#ffe6cc;strokeColor=#d79b00;" parent="1" edge="1">
          <mxGeometry width="50" height="50" relative="1" as="geometry">
            <mxPoint x="90" y="2320" as="sourcePoint" />
            <mxPoint x="680" y="2320" as="targetPoint" />
          </mxGeometry>
        </mxCell>
        <mxCell id="1AvOfJaNKrpmNgOsHSDn-236" value="" style="endArrow=classic;html=1;rounded=0;exitX=0.5;exitY=1;exitDx=0;exitDy=0;fillColor=#ffe6cc;strokeColor=#d79b00;" parent="1" source="1AvOfJaNKrpmNgOsHSDn-219" edge="1">
          <mxGeometry width="50" height="50" relative="1" as="geometry">
            <mxPoint x="560" y="2280" as="sourcePoint" />
            <mxPoint x="390" y="2320" as="targetPoint" />
          </mxGeometry>
        </mxCell>
        <mxCell id="1AvOfJaNKrpmNgOsHSDn-237" value="" style="endArrow=classic;html=1;rounded=0;entryX=0.5;entryY=0;entryDx=0;entryDy=0;" parent="1" target="1AvOfJaNKrpmNgOsHSDn-234" edge="1">
          <mxGeometry width="50" height="50" relative="1" as="geometry">
            <mxPoint x="678" y="2320" as="sourcePoint" />
            <mxPoint x="610" y="2230" as="targetPoint" />
          </mxGeometry>
        </mxCell>
        <mxCell id="1AvOfJaNKrpmNgOsHSDn-238" value="" style="endArrow=classic;html=1;rounded=0;entryX=0.5;entryY=0;entryDx=0;entryDy=0;" parent="1" target="1AvOfJaNKrpmNgOsHSDn-229" edge="1">
          <mxGeometry width="50" height="50" relative="1" as="geometry">
            <mxPoint x="88" y="2320" as="sourcePoint" />
            <mxPoint x="610" y="2230" as="targetPoint" />
          </mxGeometry>
        </mxCell>
        <mxCell id="1AvOfJaNKrpmNgOsHSDn-239" value="" style="endArrow=classic;html=1;rounded=0;entryX=0.5;entryY=0;entryDx=0;entryDy=0;" parent="1" target="1AvOfJaNKrpmNgOsHSDn-230" edge="1">
          <mxGeometry width="50" height="50" relative="1" as="geometry">
            <mxPoint x="198" y="2320" as="sourcePoint" />
            <mxPoint x="610" y="2230" as="targetPoint" />
          </mxGeometry>
        </mxCell>
        <mxCell id="1AvOfJaNKrpmNgOsHSDn-240" value="" style="endArrow=classic;html=1;rounded=0;entryX=0.5;entryY=0;entryDx=0;entryDy=0;" parent="1" target="1AvOfJaNKrpmNgOsHSDn-231" edge="1">
          <mxGeometry width="50" height="50" relative="1" as="geometry">
            <mxPoint x="313" y="2320" as="sourcePoint" />
            <mxPoint x="610" y="2230" as="targetPoint" />
          </mxGeometry>
        </mxCell>
        <mxCell id="1AvOfJaNKrpmNgOsHSDn-241" value="" style="endArrow=classic;html=1;rounded=0;entryX=0.5;entryY=0;entryDx=0;entryDy=0;" parent="1" target="1AvOfJaNKrpmNgOsHSDn-232" edge="1">
          <mxGeometry width="50" height="50" relative="1" as="geometry">
            <mxPoint x="433" y="2320" as="sourcePoint" />
            <mxPoint x="610" y="2230" as="targetPoint" />
          </mxGeometry>
        </mxCell>
        <mxCell id="1AvOfJaNKrpmNgOsHSDn-242" value="" style="endArrow=classic;html=1;rounded=0;entryX=0.5;entryY=0;entryDx=0;entryDy=0;" parent="1" target="1AvOfJaNKrpmNgOsHSDn-233" edge="1">
          <mxGeometry width="50" height="50" relative="1" as="geometry">
            <mxPoint x="548" y="2320" as="sourcePoint" />
            <mxPoint x="610" y="2230" as="targetPoint" />
          </mxGeometry>
        </mxCell>
        <mxCell id="1AvOfJaNKrpmNgOsHSDn-243" value="" style="endArrow=none;html=1;rounded=0;fillColor=#dae8fc;strokeColor=#6c8ebf;" parent="1" edge="1">
          <mxGeometry width="50" height="50" relative="1" as="geometry">
            <mxPoint x="-1900" y="3060" as="sourcePoint" />
            <mxPoint x="-1310" y="3060" as="targetPoint" />
          </mxGeometry>
        </mxCell>
        <mxCell id="1AvOfJaNKrpmNgOsHSDn-244" value="" style="endArrow=classic;html=1;rounded=0;exitX=0.5;exitY=1;exitDx=0;exitDy=0;fillColor=#dae8fc;strokeColor=#6c8ebf;" parent="1" source="1AvOfJaNKrpmNgOsHSDn-17" edge="1">
          <mxGeometry width="50" height="50" relative="1" as="geometry">
            <mxPoint x="-1630" y="3150" as="sourcePoint" />
            <mxPoint x="-1552" y="3060" as="targetPoint" />
          </mxGeometry>
        </mxCell>
        <mxCell id="1AvOfJaNKrpmNgOsHSDn-245" value="" style="endArrow=classic;html=1;rounded=0;entryX=0.5;entryY=0;entryDx=0;entryDy=0;fillColor=#dae8fc;strokeColor=#6c8ebf;" parent="1" target="1AvOfJaNKrpmNgOsHSDn-33" edge="1">
          <mxGeometry width="50" height="50" relative="1" as="geometry">
            <mxPoint x="-1312" y="3060" as="sourcePoint" />
            <mxPoint x="-1580" y="3100" as="targetPoint" />
          </mxGeometry>
        </mxCell>
        <mxCell id="1AvOfJaNKrpmNgOsHSDn-246" value="" style="endArrow=classic;html=1;rounded=0;entryX=0.5;entryY=0;entryDx=0;entryDy=0;fillColor=#dae8fc;strokeColor=#6c8ebf;" parent="1" target="1AvOfJaNKrpmNgOsHSDn-28" edge="1">
          <mxGeometry width="50" height="50" relative="1" as="geometry">
            <mxPoint x="-1902" y="3060" as="sourcePoint" />
            <mxPoint x="-1580" y="3100" as="targetPoint" />
          </mxGeometry>
        </mxCell>
        <mxCell id="1AvOfJaNKrpmNgOsHSDn-247" value="" style="endArrow=classic;html=1;rounded=0;entryX=0.5;entryY=0;entryDx=0;entryDy=0;fillColor=#dae8fc;strokeColor=#6c8ebf;" parent="1" target="1AvOfJaNKrpmNgOsHSDn-29" edge="1">
          <mxGeometry width="50" height="50" relative="1" as="geometry">
            <mxPoint x="-1792" y="3060" as="sourcePoint" />
            <mxPoint x="-1580" y="3100" as="targetPoint" />
          </mxGeometry>
        </mxCell>
        <mxCell id="1AvOfJaNKrpmNgOsHSDn-248" value="" style="endArrow=classic;html=1;rounded=0;entryX=0.5;entryY=0;entryDx=0;entryDy=0;fillColor=#dae8fc;strokeColor=#6c8ebf;" parent="1" target="1AvOfJaNKrpmNgOsHSDn-30" edge="1">
          <mxGeometry width="50" height="50" relative="1" as="geometry">
            <mxPoint x="-1677" y="3060" as="sourcePoint" />
            <mxPoint x="-1580" y="3100" as="targetPoint" />
          </mxGeometry>
        </mxCell>
        <mxCell id="1AvOfJaNKrpmNgOsHSDn-249" value="" style="endArrow=classic;html=1;rounded=0;entryX=0.5;entryY=0;entryDx=0;entryDy=0;fillColor=#dae8fc;strokeColor=#6c8ebf;" parent="1" target="1AvOfJaNKrpmNgOsHSDn-31" edge="1">
          <mxGeometry width="50" height="50" relative="1" as="geometry">
            <mxPoint x="-1557" y="3060" as="sourcePoint" />
            <mxPoint x="-1580" y="3100" as="targetPoint" />
          </mxGeometry>
        </mxCell>
        <mxCell id="1AvOfJaNKrpmNgOsHSDn-250" value="" style="endArrow=classic;html=1;rounded=0;entryX=0.5;entryY=0;entryDx=0;entryDy=0;fillColor=#dae8fc;strokeColor=#6c8ebf;" parent="1" target="1AvOfJaNKrpmNgOsHSDn-32" edge="1">
          <mxGeometry width="50" height="50" relative="1" as="geometry">
            <mxPoint x="-1440" y="3060" as="sourcePoint" />
            <mxPoint x="-1580" y="3100" as="targetPoint" />
          </mxGeometry>
        </mxCell>
        <mxCell id="1AvOfJaNKrpmNgOsHSDn-251" value="" style="endArrow=none;html=1;rounded=0;fillColor=#dae8fc;strokeColor=#6c8ebf;" parent="1" edge="1">
          <mxGeometry width="50" height="50" relative="1" as="geometry">
            <mxPoint x="-1900" y="3260" as="sourcePoint" />
            <mxPoint x="-1310" y="3260" as="targetPoint" />
          </mxGeometry>
        </mxCell>
        <mxCell id="1AvOfJaNKrpmNgOsHSDn-255" value="" style="endArrow=classic;html=1;rounded=0;exitX=0.5;exitY=1;exitDx=0;exitDy=0;fillColor=#dae8fc;strokeColor=#6c8ebf;" parent="1" source="1AvOfJaNKrpmNgOsHSDn-28" edge="1">
          <mxGeometry width="50" height="50" relative="1" as="geometry">
            <mxPoint x="-1630" y="3150" as="sourcePoint" />
            <mxPoint x="-1902" y="3260" as="targetPoint" />
          </mxGeometry>
        </mxCell>
        <mxCell id="1AvOfJaNKrpmNgOsHSDn-256" value="" style="endArrow=classic;html=1;rounded=0;exitX=0.5;exitY=1;exitDx=0;exitDy=0;fillColor=#dae8fc;strokeColor=#6c8ebf;" parent="1" source="1AvOfJaNKrpmNgOsHSDn-33" edge="1">
          <mxGeometry width="50" height="50" relative="1" as="geometry">
            <mxPoint x="-1630" y="3150" as="sourcePoint" />
            <mxPoint x="-1312" y="3260" as="targetPoint" />
          </mxGeometry>
        </mxCell>
        <mxCell id="1AvOfJaNKrpmNgOsHSDn-257" value="" style="endArrow=classic;html=1;rounded=0;entryX=0.5;entryY=0;entryDx=0;entryDy=0;fillColor=#dae8fc;strokeColor=#6c8ebf;" parent="1" target="1AvOfJaNKrpmNgOsHSDn-41" edge="1">
          <mxGeometry width="50" height="50" relative="1" as="geometry">
            <mxPoint x="-1557" y="3260" as="sourcePoint" />
            <mxPoint x="-1580" y="3100" as="targetPoint" />
          </mxGeometry>
        </mxCell>
        <mxCell id="1AvOfJaNKrpmNgOsHSDn-258" value="" style="endArrow=classic;html=1;rounded=0;exitX=0.5;exitY=1;exitDx=0;exitDy=0;fillColor=#dae8fc;strokeColor=#6c8ebf;" parent="1" source="1AvOfJaNKrpmNgOsHSDn-29" edge="1">
          <mxGeometry width="50" height="50" relative="1" as="geometry">
            <mxPoint x="-1630" y="3150" as="sourcePoint" />
            <mxPoint x="-1792" y="3260" as="targetPoint" />
          </mxGeometry>
        </mxCell>
        <mxCell id="1AvOfJaNKrpmNgOsHSDn-259" value="" style="endArrow=classic;html=1;rounded=0;exitX=0.5;exitY=1;exitDx=0;exitDy=0;fillColor=#dae8fc;strokeColor=#6c8ebf;" parent="1" source="1AvOfJaNKrpmNgOsHSDn-30" edge="1">
          <mxGeometry width="50" height="50" relative="1" as="geometry">
            <mxPoint x="-1630" y="3150" as="sourcePoint" />
            <mxPoint x="-1677" y="3260" as="targetPoint" />
          </mxGeometry>
        </mxCell>
        <mxCell id="1AvOfJaNKrpmNgOsHSDn-260" value="" style="endArrow=classic;html=1;rounded=0;exitX=0.5;exitY=1;exitDx=0;exitDy=0;fillColor=#dae8fc;strokeColor=#6c8ebf;" parent="1" source="1AvOfJaNKrpmNgOsHSDn-31" edge="1">
          <mxGeometry width="50" height="50" relative="1" as="geometry">
            <mxPoint x="-1630" y="3150" as="sourcePoint" />
            <mxPoint x="-1557" y="3260" as="targetPoint" />
          </mxGeometry>
        </mxCell>
        <mxCell id="1AvOfJaNKrpmNgOsHSDn-261" value="" style="endArrow=classic;html=1;rounded=0;exitX=0.5;exitY=1;exitDx=0;exitDy=0;fillColor=#dae8fc;strokeColor=#6c8ebf;" parent="1" source="1AvOfJaNKrpmNgOsHSDn-32" edge="1">
          <mxGeometry width="50" height="50" relative="1" as="geometry">
            <mxPoint x="-1630" y="3150" as="sourcePoint" />
            <mxPoint x="-1442" y="3260" as="targetPoint" />
          </mxGeometry>
        </mxCell>
        <mxCell id="1AvOfJaNKrpmNgOsHSDn-262" value="система получает данные о начале поездки" style="rounded=1;whiteSpace=wrap;html=1;fillColor=#ffe6cc;strokeColor=#d79b00;" parent="1" vertex="1">
          <mxGeometry x="-110" y="2910" width="120" height="60" as="geometry" />
        </mxCell>
        <mxCell id="1AvOfJaNKrpmNgOsHSDn-263" value="точка А" style="rounded=1;whiteSpace=wrap;html=1;fillColor=#ffe6cc;strokeColor=#d79b00;" parent="1" vertex="1">
          <mxGeometry x="117.5" y="2799.5" width="120" height="60" as="geometry" />
        </mxCell>
        <mxCell id="1AvOfJaNKrpmNgOsHSDn-264" value="точка В" style="rounded=1;whiteSpace=wrap;html=1;fillColor=#ffe6cc;strokeColor=#d79b00;" parent="1" vertex="1">
          <mxGeometry x="117.5" y="2910" width="120" height="60" as="geometry" />
        </mxCell>
        <mxCell id="1AvOfJaNKrpmNgOsHSDn-265" value="время начала поездки" style="rounded=1;whiteSpace=wrap;html=1;fillColor=#ffe6cc;strokeColor=#d79b00;" parent="1" vertex="1">
          <mxGeometry x="117.5" y="3020" width="120" height="60" as="geometry" />
        </mxCell>
        <mxCell id="1AvOfJaNKrpmNgOsHSDn-266" value="" style="endArrow=classic;html=1;rounded=0;exitX=1;exitY=0.5;exitDx=0;exitDy=0;entryX=0;entryY=0.5;entryDx=0;entryDy=0;fillColor=#ffe6cc;strokeColor=#d79b00;" parent="1" source="1AvOfJaNKrpmNgOsHSDn-262" target="1AvOfJaNKrpmNgOsHSDn-264" edge="1">
          <mxGeometry width="50" height="50" relative="1" as="geometry">
            <mxPoint x="190" y="3010" as="sourcePoint" />
            <mxPoint x="240" y="2960" as="targetPoint" />
          </mxGeometry>
        </mxCell>
        <mxCell id="1AvOfJaNKrpmNgOsHSDn-267" value="" style="endArrow=classic;html=1;rounded=0;exitX=1;exitY=0.5;exitDx=0;exitDy=0;entryX=0;entryY=0.5;entryDx=0;entryDy=0;fillColor=#ffe6cc;strokeColor=#d79b00;" parent="1" source="1AvOfJaNKrpmNgOsHSDn-262" target="1AvOfJaNKrpmNgOsHSDn-263" edge="1">
          <mxGeometry width="50" height="50" relative="1" as="geometry">
            <mxPoint x="190" y="3010" as="sourcePoint" />
            <mxPoint x="240" y="2960" as="targetPoint" />
          </mxGeometry>
        </mxCell>
        <mxCell id="1AvOfJaNKrpmNgOsHSDn-268" value="" style="endArrow=classic;html=1;rounded=0;exitX=1;exitY=0.5;exitDx=0;exitDy=0;entryX=0;entryY=0.5;entryDx=0;entryDy=0;fillColor=#ffe6cc;strokeColor=#d79b00;" parent="1" source="1AvOfJaNKrpmNgOsHSDn-262" target="1AvOfJaNKrpmNgOsHSDn-265" edge="1">
          <mxGeometry width="50" height="50" relative="1" as="geometry">
            <mxPoint x="190" y="3010" as="sourcePoint" />
            <mxPoint x="240" y="2960" as="targetPoint" />
          </mxGeometry>
        </mxCell>
        <mxCell id="1AvOfJaNKrpmNgOsHSDn-269" value="система рассчитывает продолжительность и стоимость поездки по алгоритму" style="rounded=1;whiteSpace=wrap;html=1;fillColor=#ffe6cc;strokeColor=#d79b00;" parent="1" vertex="1">
          <mxGeometry x="357.5" y="2895" width="170" height="90" as="geometry" />
        </mxCell>
        <mxCell id="1AvOfJaNKrpmNgOsHSDn-270" value="" style="endArrow=classic;html=1;rounded=0;exitX=1;exitY=0.5;exitDx=0;exitDy=0;entryX=0;entryY=0.5;entryDx=0;entryDy=0;fillColor=#ffe6cc;strokeColor=#d79b00;" parent="1" source="1AvOfJaNKrpmNgOsHSDn-263" target="1AvOfJaNKrpmNgOsHSDn-269" edge="1">
          <mxGeometry width="50" height="50" relative="1" as="geometry">
            <mxPoint x="420" y="3010" as="sourcePoint" />
            <mxPoint x="470" y="2960" as="targetPoint" />
          </mxGeometry>
        </mxCell>
        <mxCell id="1AvOfJaNKrpmNgOsHSDn-271" value="" style="endArrow=classic;html=1;rounded=0;exitX=1;exitY=0.5;exitDx=0;exitDy=0;entryX=0;entryY=0.5;entryDx=0;entryDy=0;fillColor=#ffe6cc;strokeColor=#d79b00;" parent="1" source="1AvOfJaNKrpmNgOsHSDn-264" target="1AvOfJaNKrpmNgOsHSDn-269" edge="1">
          <mxGeometry width="50" height="50" relative="1" as="geometry">
            <mxPoint x="420" y="3010" as="sourcePoint" />
            <mxPoint x="470" y="2960" as="targetPoint" />
          </mxGeometry>
        </mxCell>
        <mxCell id="1AvOfJaNKrpmNgOsHSDn-272" value="" style="endArrow=classic;html=1;rounded=0;exitX=1;exitY=0.5;exitDx=0;exitDy=0;entryX=0;entryY=0.5;entryDx=0;entryDy=0;fillColor=#ffe6cc;strokeColor=#d79b00;" parent="1" source="1AvOfJaNKrpmNgOsHSDn-265" target="1AvOfJaNKrpmNgOsHSDn-269" edge="1">
          <mxGeometry width="50" height="50" relative="1" as="geometry">
            <mxPoint x="420" y="3010" as="sourcePoint" />
            <mxPoint x="470" y="2960" as="targetPoint" />
          </mxGeometry>
        </mxCell>
        <mxCell id="1AvOfJaNKrpmNgOsHSDn-273" value="транспорт" style="rounded=1;whiteSpace=wrap;html=1;fillColor=#ffe6cc;strokeColor=#d79b00;" parent="1" vertex="1">
          <mxGeometry x="600" y="2894.5" width="172.5" height="90" as="geometry" />
        </mxCell>
        <mxCell id="1AvOfJaNKrpmNgOsHSDn-274" value="" style="endArrow=classic;html=1;rounded=0;exitX=1;exitY=0.5;exitDx=0;exitDy=0;entryX=0;entryY=0.5;entryDx=0;entryDy=0;fillColor=#ffe6cc;strokeColor=#d79b00;" parent="1" source="1AvOfJaNKrpmNgOsHSDn-269" target="1AvOfJaNKrpmNgOsHSDn-273" edge="1">
          <mxGeometry width="50" height="50" relative="1" as="geometry">
            <mxPoint x="630" y="3080" as="sourcePoint" />
            <mxPoint x="680" y="3030" as="targetPoint" />
          </mxGeometry>
        </mxCell>
        <mxCell id="1AvOfJaNKrpmNgOsHSDn-288" value="" style="edgeStyle=orthogonalEdgeStyle;rounded=0;orthogonalLoop=1;jettySize=auto;html=1;fillColor=#ffe6cc;strokeColor=#d79b00;" parent="1" source="1AvOfJaNKrpmNgOsHSDn-275" target="1AvOfJaNKrpmNgOsHSDn-278" edge="1">
          <mxGeometry relative="1" as="geometry" />
        </mxCell>
        <mxCell id="1AvOfJaNKrpmNgOsHSDn-275" value="пешком" style="rounded=1;whiteSpace=wrap;html=1;fillColor=#ffe6cc;strokeColor=#d79b00;" parent="1" vertex="1">
          <mxGeometry x="980" y="2580" width="130" height="60" as="geometry" />
        </mxCell>
        <mxCell id="1AvOfJaNKrpmNgOsHSDn-290" value="" style="edgeStyle=orthogonalEdgeStyle;rounded=0;orthogonalLoop=1;jettySize=auto;html=1;fillColor=#ffe6cc;strokeColor=#d79b00;" parent="1" source="1AvOfJaNKrpmNgOsHSDn-276" target="1AvOfJaNKrpmNgOsHSDn-279" edge="1">
          <mxGeometry relative="1" as="geometry" />
        </mxCell>
        <mxCell id="1AvOfJaNKrpmNgOsHSDn-276" value="шеринг самокатов" style="rounded=1;whiteSpace=wrap;html=1;fillColor=#ffe6cc;strokeColor=#d79b00;" parent="1" vertex="1">
          <mxGeometry x="980" y="2679.5" width="130" height="60" as="geometry" />
        </mxCell>
        <mxCell id="1AvOfJaNKrpmNgOsHSDn-292" value="" style="edgeStyle=orthogonalEdgeStyle;rounded=0;orthogonalLoop=1;jettySize=auto;html=1;fillColor=#ffe6cc;strokeColor=#d79b00;" parent="1" source="1AvOfJaNKrpmNgOsHSDn-277" target="1AvOfJaNKrpmNgOsHSDn-280" edge="1">
          <mxGeometry relative="1" as="geometry" />
        </mxCell>
        <mxCell id="1AvOfJaNKrpmNgOsHSDn-277" value="шеринг велосипедов" style="rounded=1;whiteSpace=wrap;html=1;fillColor=#ffe6cc;strokeColor=#d79b00;" parent="1" vertex="1">
          <mxGeometry x="980" y="2779.5" width="130" height="60" as="geometry" />
        </mxCell>
        <mxCell id="1AvOfJaNKrpmNgOsHSDn-289" value="" style="edgeStyle=orthogonalEdgeStyle;rounded=0;orthogonalLoop=1;jettySize=auto;html=1;fillColor=#ffe6cc;strokeColor=#d79b00;" parent="1" source="1AvOfJaNKrpmNgOsHSDn-278" target="1AvOfJaNKrpmNgOsHSDn-281" edge="1">
          <mxGeometry relative="1" as="geometry" />
        </mxCell>
        <mxCell id="1AvOfJaNKrpmNgOsHSDn-278" value="средняя скорость -&amp;nbsp; 4 км/ч" style="rounded=1;whiteSpace=wrap;html=1;fillColor=#ffe6cc;strokeColor=#d79b00;" parent="1" vertex="1">
          <mxGeometry x="1160" y="2580.5" width="120" height="60" as="geometry" />
        </mxCell>
        <mxCell id="1AvOfJaNKrpmNgOsHSDn-291" value="" style="edgeStyle=orthogonalEdgeStyle;rounded=0;orthogonalLoop=1;jettySize=auto;html=1;fillColor=#ffe6cc;strokeColor=#d79b00;" parent="1" source="1AvOfJaNKrpmNgOsHSDn-279" target="1AvOfJaNKrpmNgOsHSDn-282" edge="1">
          <mxGeometry relative="1" as="geometry" />
        </mxCell>
        <mxCell id="1AvOfJaNKrpmNgOsHSDn-279" value="средняя скорость - 10 км/ч" style="rounded=1;whiteSpace=wrap;html=1;fillColor=#ffe6cc;strokeColor=#d79b00;" parent="1" vertex="1">
          <mxGeometry x="1160" y="2679.5" width="120" height="60" as="geometry" />
        </mxCell>
        <mxCell id="1AvOfJaNKrpmNgOsHSDn-293" value="" style="edgeStyle=orthogonalEdgeStyle;rounded=0;orthogonalLoop=1;jettySize=auto;html=1;fillColor=#ffe6cc;strokeColor=#d79b00;" parent="1" source="1AvOfJaNKrpmNgOsHSDn-280" target="1AvOfJaNKrpmNgOsHSDn-283" edge="1">
          <mxGeometry relative="1" as="geometry" />
        </mxCell>
        <mxCell id="1AvOfJaNKrpmNgOsHSDn-280" value="средняя скорость - 12 км/ч" style="rounded=1;whiteSpace=wrap;html=1;fillColor=#ffe6cc;strokeColor=#d79b00;" parent="1" vertex="1">
          <mxGeometry x="1160" y="2779.5" width="120" height="60" as="geometry" />
        </mxCell>
        <mxCell id="1AvOfJaNKrpmNgOsHSDn-281" value="стоимость на км -&amp;nbsp;&lt;div&gt;0р / км&lt;/div&gt;" style="rounded=1;whiteSpace=wrap;html=1;fillColor=#ffe6cc;strokeColor=#d79b00;" parent="1" vertex="1">
          <mxGeometry x="1320" y="2580.5" width="120" height="60" as="geometry" />
        </mxCell>
        <mxCell id="1AvOfJaNKrpmNgOsHSDn-282" value="стоимость на км -&lt;div&gt;5.5р / км&lt;/div&gt;" style="rounded=1;whiteSpace=wrap;html=1;fillColor=#ffe6cc;strokeColor=#d79b00;" parent="1" vertex="1">
          <mxGeometry x="1320" y="2679.5" width="120" height="60" as="geometry" />
        </mxCell>
        <mxCell id="1AvOfJaNKrpmNgOsHSDn-283" value="стоимость на км -&lt;div&gt;3р / км&lt;/div&gt;" style="rounded=1;whiteSpace=wrap;html=1;fillColor=#ffe6cc;strokeColor=#d79b00;" parent="1" vertex="1">
          <mxGeometry x="1320" y="2779.5" width="120" height="60" as="geometry" />
        </mxCell>
        <mxCell id="1AvOfJaNKrpmNgOsHSDn-410" value="" style="edgeStyle=orthogonalEdgeStyle;rounded=0;orthogonalLoop=1;jettySize=auto;html=1;fillColor=#ffe6cc;strokeColor=#d79b00;" parent="1" source="1AvOfJaNKrpmNgOsHSDn-284" target="1AvOfJaNKrpmNgOsHSDn-409" edge="1">
          <mxGeometry relative="1" as="geometry" />
        </mxCell>
        <mxCell id="1AvOfJaNKrpmNgOsHSDn-284" value="каршеринг" style="rounded=1;whiteSpace=wrap;html=1;fillColor=#ffe6cc;strokeColor=#d79b00;" parent="1" vertex="1">
          <mxGeometry x="1100" y="3134.5" width="130" height="60" as="geometry" />
        </mxCell>
        <mxCell id="1AvOfJaNKrpmNgOsHSDn-412" value="" style="edgeStyle=orthogonalEdgeStyle;rounded=0;orthogonalLoop=1;jettySize=auto;html=1;fillColor=#ffe6cc;strokeColor=#d79b00;" parent="1" source="1AvOfJaNKrpmNgOsHSDn-285" target="1AvOfJaNKrpmNgOsHSDn-411" edge="1">
          <mxGeometry relative="1" as="geometry" />
        </mxCell>
        <mxCell id="1AvOfJaNKrpmNgOsHSDn-285" value="собственное авто" style="rounded=1;whiteSpace=wrap;html=1;fillColor=#ffe6cc;strokeColor=#d79b00;" parent="1" vertex="1">
          <mxGeometry x="1100" y="3299.5" width="130" height="60" as="geometry" />
        </mxCell>
        <mxCell id="1AvOfJaNKrpmNgOsHSDn-435" value="" style="edgeStyle=orthogonalEdgeStyle;rounded=0;orthogonalLoop=1;jettySize=auto;html=1;fillColor=#ffe6cc;strokeColor=#d79b00;" parent="1" source="1AvOfJaNKrpmNgOsHSDn-286" target="1AvOfJaNKrpmNgOsHSDn-434" edge="1">
          <mxGeometry relative="1" as="geometry" />
        </mxCell>
        <mxCell id="1AvOfJaNKrpmNgOsHSDn-286" value="такси" style="rounded=1;whiteSpace=wrap;html=1;fillColor=#ffe6cc;strokeColor=#d79b00;" parent="1" vertex="1">
          <mxGeometry x="1100" y="3510" width="130" height="60" as="geometry" />
        </mxCell>
        <mxCell id="1AvOfJaNKrpmNgOsHSDn-287" value="" style="endArrow=classic;html=1;rounded=0;exitX=1;exitY=0.5;exitDx=0;exitDy=0;entryX=0;entryY=0.5;entryDx=0;entryDy=0;fillColor=#ffe6cc;strokeColor=#d79b00;" parent="1" source="1AvOfJaNKrpmNgOsHSDn-273" target="1AvOfJaNKrpmNgOsHSDn-275" edge="1">
          <mxGeometry width="50" height="50" relative="1" as="geometry">
            <mxPoint x="1110" y="2860" as="sourcePoint" />
            <mxPoint x="1160" y="2810" as="targetPoint" />
          </mxGeometry>
        </mxCell>
        <mxCell id="1AvOfJaNKrpmNgOsHSDn-294" value="" style="endArrow=classic;html=1;rounded=0;exitX=1;exitY=0.5;exitDx=0;exitDy=0;entryX=0;entryY=0.5;entryDx=0;entryDy=0;fillColor=#ffe6cc;strokeColor=#d79b00;" parent="1" source="1AvOfJaNKrpmNgOsHSDn-273" target="1AvOfJaNKrpmNgOsHSDn-276" edge="1">
          <mxGeometry width="50" height="50" relative="1" as="geometry">
            <mxPoint x="1110" y="2860" as="sourcePoint" />
            <mxPoint x="1160" y="2810" as="targetPoint" />
          </mxGeometry>
        </mxCell>
        <mxCell id="1AvOfJaNKrpmNgOsHSDn-295" value="" style="endArrow=classic;html=1;rounded=0;entryX=0;entryY=0.5;entryDx=0;entryDy=0;fillColor=#ffe6cc;strokeColor=#d79b00;" parent="1" target="1AvOfJaNKrpmNgOsHSDn-277" edge="1">
          <mxGeometry width="50" height="50" relative="1" as="geometry">
            <mxPoint x="770" y="2940" as="sourcePoint" />
            <mxPoint x="1160" y="2810" as="targetPoint" />
          </mxGeometry>
        </mxCell>
        <mxCell id="1AvOfJaNKrpmNgOsHSDn-386" value="Средняя скорость автомобиля" style="shape=table;startSize=30;container=1;collapsible=0;childLayout=tableLayout;fontSize=18;fillColor=#f5f5f5;fontColor=#333333;strokeColor=#666666;" parent="1" vertex="1">
          <mxGeometry x="1590" y="3100" width="450" height="280" as="geometry" />
        </mxCell>
        <mxCell id="1AvOfJaNKrpmNgOsHSDn-387" value="" style="shape=tableRow;horizontal=0;startSize=0;swimlaneHead=0;swimlaneBody=0;top=0;left=0;bottom=0;right=0;collapsible=0;dropTarget=0;points=[[0,0.5],[1,0.5]];portConstraint=eastwest;" parent="1AvOfJaNKrpmNgOsHSDn-386" vertex="1">
          <mxGeometry y="30" width="450" height="50" as="geometry" />
        </mxCell>
        <mxCell id="1AvOfJaNKrpmNgOsHSDn-388" value="&lt;h2&gt;&lt;font style=&quot;font-size: 15px;&quot;&gt;Время Суток&lt;/font&gt;&lt;/h2&gt;" style="shape=partialRectangle;html=1;whiteSpace=wrap;connectable=0;overflow=hidden;top=0;left=0;bottom=0;right=0;pointerEvents=1;" parent="1AvOfJaNKrpmNgOsHSDn-387" vertex="1">
          <mxGeometry width="230" height="50" as="geometry">
            <mxRectangle width="230" height="50" as="alternateBounds" />
          </mxGeometry>
        </mxCell>
        <mxCell id="1AvOfJaNKrpmNgOsHSDn-389" value="&lt;h2 style=&quot;font-size: 15px;&quot;&gt;Средняя скорость автомобиля&lt;/h2&gt;" style="shape=partialRectangle;html=1;whiteSpace=wrap;connectable=0;overflow=hidden;top=0;left=0;bottom=0;right=0;pointerEvents=1;" parent="1AvOfJaNKrpmNgOsHSDn-387" vertex="1">
          <mxGeometry x="230" width="220" height="50" as="geometry">
            <mxRectangle width="220" height="50" as="alternateBounds" />
          </mxGeometry>
        </mxCell>
        <mxCell id="1AvOfJaNKrpmNgOsHSDn-390" value="" style="shape=tableRow;horizontal=0;startSize=0;swimlaneHead=0;swimlaneBody=0;top=0;left=0;bottom=0;right=0;collapsible=0;dropTarget=0;points=[[0,0.5],[1,0.5]];portConstraint=eastwest;" parent="1AvOfJaNKrpmNgOsHSDn-386" vertex="1">
          <mxGeometry y="80" width="450" height="40" as="geometry" />
        </mxCell>
        <mxCell id="1AvOfJaNKrpmNgOsHSDn-391" value="00:01 - 08:00" style="shape=partialRectangle;html=1;whiteSpace=wrap;connectable=0;overflow=hidden;top=0;left=0;bottom=0;right=0;pointerEvents=1;" parent="1AvOfJaNKrpmNgOsHSDn-390" vertex="1">
          <mxGeometry width="230" height="40" as="geometry">
            <mxRectangle width="230" height="40" as="alternateBounds" />
          </mxGeometry>
        </mxCell>
        <mxCell id="1AvOfJaNKrpmNgOsHSDn-392" value="45 км/ч" style="shape=partialRectangle;html=1;whiteSpace=wrap;connectable=0;overflow=hidden;top=0;left=0;bottom=0;right=0;pointerEvents=1;" parent="1AvOfJaNKrpmNgOsHSDn-390" vertex="1">
          <mxGeometry x="230" width="220" height="40" as="geometry">
            <mxRectangle width="220" height="40" as="alternateBounds" />
          </mxGeometry>
        </mxCell>
        <mxCell id="1AvOfJaNKrpmNgOsHSDn-393" value="" style="shape=tableRow;horizontal=0;startSize=0;swimlaneHead=0;swimlaneBody=0;top=0;left=0;bottom=0;right=0;collapsible=0;dropTarget=0;points=[[0,0.5],[1,0.5]];portConstraint=eastwest;" parent="1AvOfJaNKrpmNgOsHSDn-386" vertex="1">
          <mxGeometry y="120" width="450" height="40" as="geometry" />
        </mxCell>
        <mxCell id="1AvOfJaNKrpmNgOsHSDn-394" value="08:01 - 12:00" style="shape=partialRectangle;html=1;whiteSpace=wrap;connectable=0;overflow=hidden;top=0;left=0;bottom=0;right=0;pointerEvents=1;" parent="1AvOfJaNKrpmNgOsHSDn-393" vertex="1">
          <mxGeometry width="230" height="40" as="geometry">
            <mxRectangle width="230" height="40" as="alternateBounds" />
          </mxGeometry>
        </mxCell>
        <mxCell id="1AvOfJaNKrpmNgOsHSDn-395" value="30 км/ч" style="shape=partialRectangle;html=1;whiteSpace=wrap;connectable=0;overflow=hidden;top=0;left=0;bottom=0;right=0;pointerEvents=1;" parent="1AvOfJaNKrpmNgOsHSDn-393" vertex="1">
          <mxGeometry x="230" width="220" height="40" as="geometry">
            <mxRectangle width="220" height="40" as="alternateBounds" />
          </mxGeometry>
        </mxCell>
        <mxCell id="1AvOfJaNKrpmNgOsHSDn-396" value="" style="shape=tableRow;horizontal=0;startSize=0;swimlaneHead=0;swimlaneBody=0;top=0;left=0;bottom=0;right=0;collapsible=0;dropTarget=0;points=[[0,0.5],[1,0.5]];portConstraint=eastwest;" parent="1AvOfJaNKrpmNgOsHSDn-386" vertex="1">
          <mxGeometry y="160" width="450" height="40" as="geometry" />
        </mxCell>
        <mxCell id="1AvOfJaNKrpmNgOsHSDn-397" value="12:01 - 18:00" style="shape=partialRectangle;html=1;whiteSpace=wrap;connectable=0;overflow=hidden;top=0;left=0;bottom=0;right=0;pointerEvents=1;" parent="1AvOfJaNKrpmNgOsHSDn-396" vertex="1">
          <mxGeometry width="230" height="40" as="geometry">
            <mxRectangle width="230" height="40" as="alternateBounds" />
          </mxGeometry>
        </mxCell>
        <mxCell id="1AvOfJaNKrpmNgOsHSDn-398" value="40 км/ч" style="shape=partialRectangle;html=1;whiteSpace=wrap;connectable=0;overflow=hidden;top=0;left=0;bottom=0;right=0;pointerEvents=1;" parent="1AvOfJaNKrpmNgOsHSDn-396" vertex="1">
          <mxGeometry x="230" width="220" height="40" as="geometry">
            <mxRectangle width="220" height="40" as="alternateBounds" />
          </mxGeometry>
        </mxCell>
        <mxCell id="1AvOfJaNKrpmNgOsHSDn-399" value="" style="shape=tableRow;horizontal=0;startSize=0;swimlaneHead=0;swimlaneBody=0;top=0;left=0;bottom=0;right=0;collapsible=0;dropTarget=0;points=[[0,0.5],[1,0.5]];portConstraint=eastwest;" parent="1AvOfJaNKrpmNgOsHSDn-386" vertex="1">
          <mxGeometry y="200" width="450" height="40" as="geometry" />
        </mxCell>
        <mxCell id="1AvOfJaNKrpmNgOsHSDn-400" value="18:01 - 22:00" style="shape=partialRectangle;html=1;whiteSpace=wrap;connectable=0;overflow=hidden;top=0;left=0;bottom=0;right=0;pointerEvents=1;" parent="1AvOfJaNKrpmNgOsHSDn-399" vertex="1">
          <mxGeometry width="230" height="40" as="geometry">
            <mxRectangle width="230" height="40" as="alternateBounds" />
          </mxGeometry>
        </mxCell>
        <mxCell id="1AvOfJaNKrpmNgOsHSDn-401" value="25 км/ч" style="shape=partialRectangle;html=1;whiteSpace=wrap;connectable=0;overflow=hidden;top=0;left=0;bottom=0;right=0;pointerEvents=1;" parent="1AvOfJaNKrpmNgOsHSDn-399" vertex="1">
          <mxGeometry x="230" width="220" height="40" as="geometry">
            <mxRectangle width="220" height="40" as="alternateBounds" />
          </mxGeometry>
        </mxCell>
        <mxCell id="1AvOfJaNKrpmNgOsHSDn-402" value="" style="shape=tableRow;horizontal=0;startSize=0;swimlaneHead=0;swimlaneBody=0;top=0;left=0;bottom=0;right=0;collapsible=0;dropTarget=0;points=[[0,0.5],[1,0.5]];portConstraint=eastwest;" parent="1AvOfJaNKrpmNgOsHSDn-386" vertex="1">
          <mxGeometry y="240" width="450" height="40" as="geometry" />
        </mxCell>
        <mxCell id="1AvOfJaNKrpmNgOsHSDn-403" value="22:01 - 00:00" style="shape=partialRectangle;html=1;whiteSpace=wrap;connectable=0;overflow=hidden;top=0;left=0;bottom=0;right=0;pointerEvents=1;" parent="1AvOfJaNKrpmNgOsHSDn-402" vertex="1">
          <mxGeometry width="230" height="40" as="geometry">
            <mxRectangle width="230" height="40" as="alternateBounds" />
          </mxGeometry>
        </mxCell>
        <mxCell id="1AvOfJaNKrpmNgOsHSDn-404" value="45 км/ч" style="shape=partialRectangle;html=1;whiteSpace=wrap;connectable=0;overflow=hidden;top=0;left=0;bottom=0;right=0;pointerEvents=1;" parent="1AvOfJaNKrpmNgOsHSDn-402" vertex="1">
          <mxGeometry x="230" width="220" height="40" as="geometry">
            <mxRectangle width="220" height="40" as="alternateBounds" />
          </mxGeometry>
        </mxCell>
        <mxCell id="1AvOfJaNKrpmNgOsHSDn-405" value="" style="endArrow=classic;html=1;rounded=0;exitX=1;exitY=0.5;exitDx=0;exitDy=0;entryX=0;entryY=0.5;entryDx=0;entryDy=0;fillColor=#ffe6cc;strokeColor=#d79b00;" parent="1" source="1AvOfJaNKrpmNgOsHSDn-273" target="1AvOfJaNKrpmNgOsHSDn-284" edge="1">
          <mxGeometry width="50" height="50" relative="1" as="geometry">
            <mxPoint x="1030" y="3160" as="sourcePoint" />
            <mxPoint x="1080" y="3110" as="targetPoint" />
          </mxGeometry>
        </mxCell>
        <mxCell id="1AvOfJaNKrpmNgOsHSDn-406" value="" style="endArrow=classic;html=1;rounded=0;exitX=1;exitY=0.5;exitDx=0;exitDy=0;entryX=0;entryY=0.5;entryDx=0;entryDy=0;fillColor=#ffe6cc;strokeColor=#d79b00;" parent="1" source="1AvOfJaNKrpmNgOsHSDn-273" target="1AvOfJaNKrpmNgOsHSDn-285" edge="1">
          <mxGeometry width="50" height="50" relative="1" as="geometry">
            <mxPoint x="1030" y="3160" as="sourcePoint" />
            <mxPoint x="1080" y="3110" as="targetPoint" />
          </mxGeometry>
        </mxCell>
        <mxCell id="1AvOfJaNKrpmNgOsHSDn-409" value="9р / мин" style="rounded=1;whiteSpace=wrap;html=1;fillColor=#ffe6cc;strokeColor=#d79b00;" parent="1" vertex="1">
          <mxGeometry x="1330" y="3134.5" width="120" height="60" as="geometry" />
        </mxCell>
        <mxCell id="1AvOfJaNKrpmNgOsHSDn-411" value="20р / мин" style="rounded=1;whiteSpace=wrap;html=1;fillColor=#ffe6cc;strokeColor=#d79b00;" parent="1" vertex="1">
          <mxGeometry x="1330" y="3299.5" width="120" height="60" as="geometry" />
        </mxCell>
        <mxCell id="1AvOfJaNKrpmNgOsHSDn-413" value="Средняя скорость такси с учетом&#xa;движения по выделенным полосам" style="shape=table;startSize=50;container=1;collapsible=0;childLayout=tableLayout;fontSize=18;fillColor=#f5f5f5;fontColor=#333333;strokeColor=#666666;" parent="1" vertex="1">
          <mxGeometry x="1590" y="3460" width="450" height="360" as="geometry" />
        </mxCell>
        <mxCell id="1AvOfJaNKrpmNgOsHSDn-414" value="" style="shape=tableRow;horizontal=0;startSize=0;swimlaneHead=0;swimlaneBody=0;top=0;left=0;bottom=0;right=0;collapsible=0;dropTarget=0;points=[[0,0.5],[1,0.5]];portConstraint=eastwest;" parent="1AvOfJaNKrpmNgOsHSDn-413" vertex="1">
          <mxGeometry y="50" width="450" height="52" as="geometry" />
        </mxCell>
        <mxCell id="1AvOfJaNKrpmNgOsHSDn-415" value="&lt;h2 style=&quot;font-size: 15px;&quot;&gt;Время Суток&lt;/h2&gt;" style="shape=partialRectangle;html=1;whiteSpace=wrap;connectable=0;overflow=hidden;top=0;left=0;bottom=0;right=0;pointerEvents=1;" parent="1AvOfJaNKrpmNgOsHSDn-414" vertex="1">
          <mxGeometry width="230" height="52" as="geometry">
            <mxRectangle width="230" height="52" as="alternateBounds" />
          </mxGeometry>
        </mxCell>
        <mxCell id="1AvOfJaNKrpmNgOsHSDn-416" value="&lt;h2 style=&quot;font-size: 15px;&quot;&gt;Средняя скорость автомобиля&lt;/h2&gt;" style="shape=partialRectangle;html=1;whiteSpace=wrap;connectable=0;overflow=hidden;top=0;left=0;bottom=0;right=0;pointerEvents=1;" parent="1AvOfJaNKrpmNgOsHSDn-414" vertex="1">
          <mxGeometry x="230" width="220" height="52" as="geometry">
            <mxRectangle width="220" height="52" as="alternateBounds" />
          </mxGeometry>
        </mxCell>
        <mxCell id="1AvOfJaNKrpmNgOsHSDn-417" value="" style="shape=tableRow;horizontal=0;startSize=0;swimlaneHead=0;swimlaneBody=0;top=0;left=0;bottom=0;right=0;collapsible=0;dropTarget=0;points=[[0,0.5],[1,0.5]];portConstraint=eastwest;" parent="1AvOfJaNKrpmNgOsHSDn-413" vertex="1">
          <mxGeometry y="102" width="450" height="51" as="geometry" />
        </mxCell>
        <mxCell id="1AvOfJaNKrpmNgOsHSDn-418" value="00:01 - 08:00" style="shape=partialRectangle;html=1;whiteSpace=wrap;connectable=0;overflow=hidden;top=0;left=0;bottom=0;right=0;pointerEvents=1;" parent="1AvOfJaNKrpmNgOsHSDn-417" vertex="1">
          <mxGeometry width="230" height="51" as="geometry">
            <mxRectangle width="230" height="51" as="alternateBounds" />
          </mxGeometry>
        </mxCell>
        <mxCell id="1AvOfJaNKrpmNgOsHSDn-419" value="50 км/ч" style="shape=partialRectangle;html=1;whiteSpace=wrap;connectable=0;overflow=hidden;top=0;left=0;bottom=0;right=0;pointerEvents=1;" parent="1AvOfJaNKrpmNgOsHSDn-417" vertex="1">
          <mxGeometry x="230" width="220" height="51" as="geometry">
            <mxRectangle width="220" height="51" as="alternateBounds" />
          </mxGeometry>
        </mxCell>
        <mxCell id="1AvOfJaNKrpmNgOsHSDn-420" value="" style="shape=tableRow;horizontal=0;startSize=0;swimlaneHead=0;swimlaneBody=0;top=0;left=0;bottom=0;right=0;collapsible=0;dropTarget=0;points=[[0,0.5],[1,0.5]];portConstraint=eastwest;" parent="1AvOfJaNKrpmNgOsHSDn-413" vertex="1">
          <mxGeometry y="153" width="450" height="52" as="geometry" />
        </mxCell>
        <mxCell id="1AvOfJaNKrpmNgOsHSDn-421" value="08:01 - 12:00" style="shape=partialRectangle;html=1;whiteSpace=wrap;connectable=0;overflow=hidden;top=0;left=0;bottom=0;right=0;pointerEvents=1;" parent="1AvOfJaNKrpmNgOsHSDn-420" vertex="1">
          <mxGeometry width="230" height="52" as="geometry">
            <mxRectangle width="230" height="52" as="alternateBounds" />
          </mxGeometry>
        </mxCell>
        <mxCell id="1AvOfJaNKrpmNgOsHSDn-422" value="35 км/ч" style="shape=partialRectangle;html=1;whiteSpace=wrap;connectable=0;overflow=hidden;top=0;left=0;bottom=0;right=0;pointerEvents=1;" parent="1AvOfJaNKrpmNgOsHSDn-420" vertex="1">
          <mxGeometry x="230" width="220" height="52" as="geometry">
            <mxRectangle width="220" height="52" as="alternateBounds" />
          </mxGeometry>
        </mxCell>
        <mxCell id="1AvOfJaNKrpmNgOsHSDn-423" value="" style="shape=tableRow;horizontal=0;startSize=0;swimlaneHead=0;swimlaneBody=0;top=0;left=0;bottom=0;right=0;collapsible=0;dropTarget=0;points=[[0,0.5],[1,0.5]];portConstraint=eastwest;" parent="1AvOfJaNKrpmNgOsHSDn-413" vertex="1">
          <mxGeometry y="205" width="450" height="52" as="geometry" />
        </mxCell>
        <mxCell id="1AvOfJaNKrpmNgOsHSDn-424" value="12:01 - 18:00" style="shape=partialRectangle;html=1;whiteSpace=wrap;connectable=0;overflow=hidden;top=0;left=0;bottom=0;right=0;pointerEvents=1;" parent="1AvOfJaNKrpmNgOsHSDn-423" vertex="1">
          <mxGeometry width="230" height="52" as="geometry">
            <mxRectangle width="230" height="52" as="alternateBounds" />
          </mxGeometry>
        </mxCell>
        <mxCell id="1AvOfJaNKrpmNgOsHSDn-425" value="42 км/ч" style="shape=partialRectangle;html=1;whiteSpace=wrap;connectable=0;overflow=hidden;top=0;left=0;bottom=0;right=0;pointerEvents=1;" parent="1AvOfJaNKrpmNgOsHSDn-423" vertex="1">
          <mxGeometry x="230" width="220" height="52" as="geometry">
            <mxRectangle width="220" height="52" as="alternateBounds" />
          </mxGeometry>
        </mxCell>
        <mxCell id="1AvOfJaNKrpmNgOsHSDn-426" value="" style="shape=tableRow;horizontal=0;startSize=0;swimlaneHead=0;swimlaneBody=0;top=0;left=0;bottom=0;right=0;collapsible=0;dropTarget=0;points=[[0,0.5],[1,0.5]];portConstraint=eastwest;" parent="1AvOfJaNKrpmNgOsHSDn-413" vertex="1">
          <mxGeometry y="257" width="450" height="51" as="geometry" />
        </mxCell>
        <mxCell id="1AvOfJaNKrpmNgOsHSDn-427" value="18:01 - 22:00" style="shape=partialRectangle;html=1;whiteSpace=wrap;connectable=0;overflow=hidden;top=0;left=0;bottom=0;right=0;pointerEvents=1;" parent="1AvOfJaNKrpmNgOsHSDn-426" vertex="1">
          <mxGeometry width="230" height="51" as="geometry">
            <mxRectangle width="230" height="51" as="alternateBounds" />
          </mxGeometry>
        </mxCell>
        <mxCell id="1AvOfJaNKrpmNgOsHSDn-428" value="30 км/ч" style="shape=partialRectangle;html=1;whiteSpace=wrap;connectable=0;overflow=hidden;top=0;left=0;bottom=0;right=0;pointerEvents=1;" parent="1AvOfJaNKrpmNgOsHSDn-426" vertex="1">
          <mxGeometry x="230" width="220" height="51" as="geometry">
            <mxRectangle width="220" height="51" as="alternateBounds" />
          </mxGeometry>
        </mxCell>
        <mxCell id="1AvOfJaNKrpmNgOsHSDn-429" value="" style="shape=tableRow;horizontal=0;startSize=0;swimlaneHead=0;swimlaneBody=0;top=0;left=0;bottom=0;right=0;collapsible=0;dropTarget=0;points=[[0,0.5],[1,0.5]];portConstraint=eastwest;" parent="1AvOfJaNKrpmNgOsHSDn-413" vertex="1">
          <mxGeometry y="308" width="450" height="52" as="geometry" />
        </mxCell>
        <mxCell id="1AvOfJaNKrpmNgOsHSDn-430" value="22:01 - 00:00" style="shape=partialRectangle;html=1;whiteSpace=wrap;connectable=0;overflow=hidden;top=0;left=0;bottom=0;right=0;pointerEvents=1;" parent="1AvOfJaNKrpmNgOsHSDn-429" vertex="1">
          <mxGeometry width="230" height="52" as="geometry">
            <mxRectangle width="230" height="52" as="alternateBounds" />
          </mxGeometry>
        </mxCell>
        <mxCell id="1AvOfJaNKrpmNgOsHSDn-431" value="50 км/ч" style="shape=partialRectangle;html=1;whiteSpace=wrap;connectable=0;overflow=hidden;top=0;left=0;bottom=0;right=0;pointerEvents=1;" parent="1AvOfJaNKrpmNgOsHSDn-429" vertex="1">
          <mxGeometry x="230" width="220" height="52" as="geometry">
            <mxRectangle width="220" height="52" as="alternateBounds" />
          </mxGeometry>
        </mxCell>
        <mxCell id="1AvOfJaNKrpmNgOsHSDn-432" value="" style="endArrow=classic;html=1;rounded=0;entryX=0;entryY=0;entryDx=0;entryDy=0;exitX=1;exitY=0.5;exitDx=0;exitDy=0;fillColor=#ffe6cc;strokeColor=#d79b00;" parent="1" source="1AvOfJaNKrpmNgOsHSDn-273" target="1AvOfJaNKrpmNgOsHSDn-286" edge="1">
          <mxGeometry width="50" height="50" relative="1" as="geometry">
            <mxPoint x="700" y="3310" as="sourcePoint" />
            <mxPoint x="750" y="3260" as="targetPoint" />
          </mxGeometry>
        </mxCell>
        <mxCell id="1AvOfJaNKrpmNgOsHSDn-434" value="11р / мин" style="rounded=1;whiteSpace=wrap;html=1;fillColor=#ffe6cc;strokeColor=#d79b00;" parent="1" vertex="1">
          <mxGeometry x="1330" y="3510" width="120" height="60" as="geometry" />
        </mxCell>
        <mxCell id="1AvOfJaNKrpmNgOsHSDn-439" value="Если поездка захватывает несколько временных интервалов, алгоритм выбирает скорость автомобиля из того диапазона, в котором поездка началась." style="rounded=1;whiteSpace=wrap;html=1;fillColor=#ffe6cc;strokeColor=#d79b00;" parent="1" vertex="1">
          <mxGeometry x="2230" y="3350" width="250" height="130" as="geometry" />
        </mxCell>
        <mxCell id="1AvOfJaNKrpmNgOsHSDn-440" value="" style="endArrow=classic;html=1;rounded=0;exitX=1;exitY=0.5;exitDx=0;exitDy=0;entryX=0;entryY=0.5;entryDx=0;entryDy=0;fillColor=#ffe6cc;strokeColor=#d79b00;" parent="1" source="1AvOfJaNKrpmNgOsHSDn-434" target="1AvOfJaNKrpmNgOsHSDn-420" edge="1">
          <mxGeometry width="50" height="50" relative="1" as="geometry">
            <mxPoint x="1490" y="3460" as="sourcePoint" />
            <mxPoint x="1540" y="3410" as="targetPoint" />
          </mxGeometry>
        </mxCell>
        <mxCell id="1AvOfJaNKrpmNgOsHSDn-441" value="" style="endArrow=classic;html=1;rounded=0;exitX=0.989;exitY=0.614;exitDx=0;exitDy=0;exitPerimeter=0;entryX=0;entryY=0;entryDx=0;entryDy=0;entryPerimeter=0;fillColor=#ffe6cc;strokeColor=#d79b00;" parent="1" source="1AvOfJaNKrpmNgOsHSDn-411" target="1AvOfJaNKrpmNgOsHSDn-396" edge="1">
          <mxGeometry width="50" height="50" relative="1" as="geometry">
            <mxPoint x="1490" y="3460" as="sourcePoint" />
            <mxPoint x="1540" y="3410" as="targetPoint" />
          </mxGeometry>
        </mxCell>
        <mxCell id="1AvOfJaNKrpmNgOsHSDn-442" value="" style="endArrow=classic;html=1;rounded=0;exitX=1;exitY=0.5;exitDx=0;exitDy=0;entryX=-0.005;entryY=1.108;entryDx=0;entryDy=0;entryPerimeter=0;fillColor=#ffe6cc;strokeColor=#d79b00;" parent="1" source="1AvOfJaNKrpmNgOsHSDn-409" target="1AvOfJaNKrpmNgOsHSDn-393" edge="1">
          <mxGeometry width="50" height="50" relative="1" as="geometry">
            <mxPoint x="1490" y="3460" as="sourcePoint" />
            <mxPoint x="1540" y="3410" as="targetPoint" />
          </mxGeometry>
        </mxCell>
        <mxCell id="1AvOfJaNKrpmNgOsHSDn-443" value="" style="endArrow=classic;html=1;rounded=0;entryX=0;entryY=0.5;entryDx=0;entryDy=0;exitX=1.002;exitY=0.836;exitDx=0;exitDy=0;exitPerimeter=0;fillColor=#ffe6cc;strokeColor=#d79b00;" parent="1" source="1AvOfJaNKrpmNgOsHSDn-393" target="1AvOfJaNKrpmNgOsHSDn-439" edge="1">
          <mxGeometry width="50" height="50" relative="1" as="geometry">
            <mxPoint x="1990" y="3390" as="sourcePoint" />
            <mxPoint x="2040" y="3340" as="targetPoint" />
          </mxGeometry>
        </mxCell>
        <mxCell id="1AvOfJaNKrpmNgOsHSDn-444" value="" style="endArrow=classic;html=1;rounded=0;entryX=0;entryY=0.5;entryDx=0;entryDy=0;exitX=0.998;exitY=1.001;exitDx=0;exitDy=0;exitPerimeter=0;fillColor=#ffe6cc;strokeColor=#d79b00;" parent="1" source="1AvOfJaNKrpmNgOsHSDn-420" target="1AvOfJaNKrpmNgOsHSDn-439" edge="1">
          <mxGeometry width="50" height="50" relative="1" as="geometry">
            <mxPoint x="1990" y="3390" as="sourcePoint" />
            <mxPoint x="2040" y="3340" as="targetPoint" />
          </mxGeometry>
        </mxCell>
      </root>
    </mxGraphModel>
  </diagram>
</mxfile>
